<svg width="738" height="750" viewBox="0 0 738 750" fill="none" xmlns="http://www.w3.org/2000/svg">
<path d="M496.779 119.799C496.705 119.272 496.209 118.987 495.7 118.933C495.198 118.09 494.568 117.289 493.851 116.58C490.651 113.409 486.375 111.693 481.759 110.305C476.788 108.811 471.845 109.938 466.902 108.717C464.775 108.192 462.958 107.07 461.188 105.972C457.364 103.599 453.483 101.211 449.079 99.6494C444.675 98.0879 439.628 97.4069 435.042 98.5664C428.876 100.125 424.586 104.637 419.044 107.341C416.693 108.489 414.154 109.285 411.516 109.824C410.96 109.822 410.411 109.84 409.851 109.827C400.381 109.611 390.696 107.532 381.304 109.366C375.326 110.533 369.483 113.377 367.005 118.177C364.63 122.775 365.598 128.446 370.681 131.524C375.864 134.662 382.762 133.782 388.779 134.191C398.852 134.877 402.845 141.069 410.291 145.468C423.984 153.559 441.878 143.206 454.031 137.466C459.535 134.865 464.722 132.958 471.154 132.573C475.619 132.306 480.137 132.555 484.534 131.722C488.941 130.888 492.879 129.006 495.065 126.195C495.648 125.613 496.122 124.969 496.42 124.252C496.695 123.594 496.804 122.916 496.782 122.238C496.89 121.464 496.899 120.652 496.779 119.799Z" fill="#C7E1ED"/>
<path d="M548.055 166.398C546.302 168.914 542.19 169.29 538.661 169.724C537.49 170.082 536.302 170.324 535.217 170.427C530.224 172.032 528.286 175.763 524.324 178.563C519.013 182.318 511.721 184.281 504.476 183.671C503.262 183.725 502.041 183.69 500.832 183.537C495.905 182.918 492.028 180.663 488.153 178.334C486.246 177.36 484.378 176.301 482.615 175.182C481.982 174.863 481.342 174.555 480.68 174.273C471.727 170.448 460.505 170.739 450.402 168.773C448.102 168.326 445.616 167.615 444.635 166.089C441.653 161.46 452.834 156.926 457.826 156.165C463.168 155.352 469.634 156.81 473.635 154.199C477.592 151.616 476.27 146.696 479.902 143.889C483.511 141.101 489.685 141.845 494.224 142.85C496.345 143.319 499.033 143.7 500.521 144.909C502.414 146.447 503.722 148.319 506.162 149.502C509.808 151.272 514.667 150.96 518.957 151.743C520.789 152.078 522.686 152.717 523.49 153.917C523.864 154.473 523.963 155.1 524.255 155.681C525.083 157.325 527.403 158.423 529.818 158.841C534.426 159.642 539.142 158.391 543.573 159.933C546.976 161.121 549.961 163.664 548.055 166.398Z" fill="#C7E1ED"/>
<path opacity="0.13" d="M552.92 511.295C548.308 512.609 540.912 516.143 546.121 521.084C549.369 524.166 554.742 525.378 559.009 525.989C564.793 526.818 570.655 526.886 576.497 526.925C597.335 527.058 618.174 526.821 639.004 526.212C649.66 525.9 660.314 525.491 670.965 524.984C677.836 524.657 684.909 525.65 691.666 523.959C697.391 522.527 703.036 516.912 696.941 511.229C694.591 509.037 691.3 508.299 688.162 507.716C667.005 503.774 645.417 503.019 623.919 502.275C618.586 502.091 613.249 501.906 607.915 502.046C589.637 502.524 571.686 506.793 553.886 511.041C553.583 511.113 553.26 511.197 552.92 511.295Z" fill="#110809"/>
<path d="M612.198 345.671L620.273 342.935C620.273 342.935 628.349 321.05 628.349 319.682" fill="#D19886"/>
<path d="M617.582 319.681C617.582 321.049 609.507 347.037 609.507 347.037L620.275 351.141L628.35 321.049L617.582 319.681Z" fill="#D19886"/>
<path d="M629.859 267.669C622.874 287.531 617.324 306.226 613.998 327.228C617.251 329.752 621.521 330.579 624.668 332.628C631.631 316.916 638.631 301.106 643.33 284.316C643.562 283.487 643.792 282.617 643.686 281.772C643.596 281.058 643.274 280.437 642.96 279.839C638.706 271.743 634.453 263.648 630.2 255.552C630.598 260.015 631.349 263.432 629.859 267.669Z" fill="#6498B0"/>
<path d="M686.2 517.869C685.462 517.308 684.509 517.224 683.576 517.17C682.157 506.115 674.854 494.743 666.484 487.588C666.727 468.841 666.289 450.04 666.287 431.331C666.286 406.092 667.291 380.599 666.01 355.393C665.939 353.985 663.926 353.982 663.855 355.393C662.574 380.601 663.579 406.092 663.578 431.331C663.576 449.785 663.154 468.331 663.375 486.825C658.31 490.359 653.781 494.761 649.606 499.342C644.155 504.555 638.902 511.128 635.74 518.097C635.119 518.116 634.499 518.154 633.882 518.268C632.728 518.479 632.865 520.209 633.882 520.504C634.945 520.813 636.075 520.839 637.175 520.839C638.241 520.84 639.39 520.95 640.333 520.389C641.026 519.976 641.182 518.679 640.333 518.313C639.668 518.025 639.012 517.998 638.336 518.019C638.54 517.684 638.744 517.35 638.948 517.018C640.292 515.541 641.386 513.94 642.615 512.22C644.615 509.418 646.736 506.706 648.967 504.09C653.437 498.844 658.46 494.304 663.415 489.592C663.508 495.492 663.665 501.387 663.936 507.27C663.997 508.575 665.874 508.578 665.935 507.27C666.184 501.871 666.329 496.462 666.425 491.049C673.34 498.492 678.366 506.92 680.879 516.961C680.1 516.907 679.319 516.871 678.535 516.901C677.177 516.951 676.829 518.986 678.209 519.357C679.563 519.72 680.946 519.903 682.332 520.083C683.695 520.26 684.919 520.612 686.206 520.03C687.137 519.603 686.851 518.361 686.2 517.869Z" fill="#110809"/>
<path d="M656.023 222.746C653.75 217.208 653.555 211.562 653.238 205.836C650.956 205.112 647.142 206.249 644.217 206.759C642.452 207.068 636.79 207.212 636.28 209.139C635.823 210.87 640.09 217.425 640.694 219.479C641.895 223.565 642.264 228.015 640.973 232.073C640.006 235.112 638.124 237.83 635.691 239.852C634.342 240.974 632.763 241.97 632.041 243.582C630.512 247.002 634.784 248.846 637.231 249.566C642.962 251.253 646.666 242.127 652.459 240.677C656.438 239.681 664.128 239.573 662.304 233.397C659.896 230.033 657.598 226.584 656.023 222.746Z" fill="#D19886"/>
<path d="M644.81 214.313C649.003 213.662 648.158 218.117 651.154 215.064C651.845 214.361 655.096 208.523 654.904 207.549C653.718 201.531 653.393 193.619 650.634 190.862C647.389 187.619 641.377 187.131 637.139 186.752C634.198 186.488 630.877 187.071 629.085 189.456C627.65 191.366 627.538 193.947 627.486 196.349C627.379 201.263 626.493 206.682 629.826 210.701C632.506 213.933 636.763 214.944 640.767 214.724C642.435 214.632 642.971 214.185 644.64 214.143C644.863 214.137 645.102 214.142 645.284 214.272C645.464 214.404 644.986 214.172 644.81 214.313Z" fill="#D19886"/>
<path d="M618.136 470.817C617.919 471.741 617.733 472.68 617.487 473.589C616.743 476.332 615.637 478.173 615.41 481.093C614.958 486.93 614.505 492.766 614.054 498.603C613.67 503.553 616.166 509.77 621.096 510.693C627.777 511.942 630.149 504.337 631.177 498.828C632.384 492.357 633.591 485.884 634.799 479.413C635.444 475.954 636.58 471.277 635.423 467.808C634.419 464.799 631.729 464.086 628.905 463.786C625.803 463.456 622.294 463.696 620.157 466.18C619.023 467.5 618.53 469.135 618.136 470.817Z" fill="#E0AC9B"/>
<path d="M630.293 503.334C630.293 503.242 630.291 503.145 630.269 503.058C630.257 503.014 630.241 502.972 630.216 502.935C629.937 502.513 626.744 503.416 626.146 503.521C624.713 503.772 623.27 504.019 621.816 504.046C618.935 504.099 616.299 503.041 615.174 499.918C614.83 498.964 614.601 497.898 613.685 498.045C609.93 502.459 605.143 505.377 599.894 507.343C596.669 508.551 593.306 509.17 590.069 510.306C588.336 510.913 585.072 512.493 585.292 514.945C585.363 515.73 585.74 516.45 586.225 517.03C589.385 520.809 594.749 520.765 599.05 520.743C602.018 520.728 604.995 520.713 607.943 520.318C610.626 519.96 613.267 519.289 615.872 518.502C616.744 518.238 617.652 517.959 618.541 518.143C619.662 518.376 620.294 519.336 621.258 519.859C622.062 520.297 622.92 520.204 623.782 520.153C625.192 520.071 626.598 519.918 627.996 519.696C628.129 519.675 628.266 519.651 628.38 519.574C628.498 519.496 628.58 519.367 628.657 519.243C630.039 516.976 630.489 514.233 630.759 511.573C631.035 508.845 630.293 506.095 630.293 503.334Z" fill="#110809"/>
<path d="M656.699 318.528C647.08 315.869 635.343 314.654 628.363 321.54C628.1 321.8 627.844 322.07 627.596 322.352C619.01 332.097 614.13 344.442 611.823 356.751C603.924 398.895 613.854 442.053 612.293 484.482C620.794 485.714 629.317 486.837 637.702 488.586C639.181 486.105 645.089 441.462 644.813 423.048C644.666 413.229 642.255 401.789 644.779 392.307C647.29 382.869 651.169 373.116 655.156 364.098C659.465 354.344 675.986 323.862 656.699 318.528Z" fill="#13285E"/>
<path d="M693.865 355.311C692.2 354.127 689.729 353.952 687.542 353.88C687.478 353.874 687.417 353.865 687.355 353.86C686.653 353.815 685.943 353.802 685.229 353.802C680.963 353.622 676.69 353.629 672.422 353.748C664.506 353.967 656.519 354.337 648.638 355.131C647.328 355.263 641.26 355.647 640.012 357.582C639.616 357.81 639.3 358.113 639.119 358.522C638.387 360.174 639.935 361.335 641.289 361.644C644.607 362.401 648.612 361.965 652.006 361.981C656.165 362.002 660.326 361.927 664.484 361.8C672.519 361.554 680.698 361.488 688.683 360.489C690.41 360.273 693.279 360.343 694.551 358.905C695.623 357.69 695.077 356.172 693.865 355.311Z" fill="#9B9EA1"/>
<path d="M693.865 352.575C692.2 351.391 689.729 351.216 687.542 351.144C687.478 351.138 687.417 351.129 687.355 351.124C686.653 351.079 685.943 351.066 685.229 351.066C680.963 350.886 676.69 350.893 672.422 351.012C664.506 351.231 656.519 351.601 648.638 352.395C647.328 352.527 641.26 352.911 640.012 354.846C639.616 355.074 639.3 355.377 639.119 355.786C638.387 357.438 639.935 358.599 641.289 358.908C644.607 359.665 648.612 359.229 652.006 359.245C656.165 359.266 660.326 359.19 664.484 359.064C672.519 358.818 680.698 358.752 688.683 357.753C690.41 357.537 693.279 357.607 694.551 356.169C695.623 354.954 695.077 353.436 693.865 352.575Z" fill="#C9CDD1"/>
<path d="M668.066 320.782C667.012 315.094 665.006 309.915 661.296 309.864C652.342 309.741 643.393 309.348 634.446 309.031C633.417 308.995 630.89 308.472 629.966 308.919C628.239 309.754 628.412 312.712 627.878 314.445C626.325 319.486 623.522 324.15 620.137 328.312C613.597 336.357 605.068 342.342 598.764 350.56C592.584 358.617 587.218 367.3 583.729 376.69C581.953 381.471 580.696 386.436 580.173 391.471C581.584 407.799 587.627 423.417 594.826 438.309C598.676 446.275 602.47 454.563 607.237 462.091C608.949 464.796 610.809 467.418 612.616 470.065C612.414 458.406 611.462 439.078 611.358 433.477C611.16 422.706 610.976 411.814 613.469 401.295C616.687 387.721 626.177 377.797 637.333 369.154C644.599 363.616 652.604 359.122 660.13 354.124C666.363 349.986 668.977 341.331 669.138 334.141C669.197 331.642 669.033 325.999 668.066 320.782Z" fill="#2B417A"/>
<path d="M597.295 217.569C597.668 214.871 598.179 212.201 598.829 209.556C599.229 207.93 601.701 208.619 601.301 210.249C601.2 210.657 601.11 211.068 601.016 211.476C601.764 211.505 602.519 212.136 602.274 213.092C602.209 213.344 602.135 213.593 602.064 213.843C602.548 213.774 603.079 213.981 603.376 214.382C603.028 215.742 602.393 217.022 602.79 218.465C603.175 219.869 605.37 221.297 605.259 221.984C605.256 222.002 605.29 221.997 605.307 222.005C605.372 222.059 605.435 222.113 605.5 222.167C605.599 222.248 605.727 222.164 605.735 222.071C605.809 222.054 605.879 222.023 605.941 221.976C607.654 224.136 610.235 224.964 609.959 231.486C609.89 233.112 610.071 244.224 609.422 244.2C607.299 244.121 603.484 243.21 601.379 242.942C600.623 242.846 599.698 244.374 598.904 243.956C598.088 243.525 598.861 241.452 599.035 240.827C599.956 237.515 600.73 234.161 601.35 230.778C601.502 229.947 601.603 229.029 601.488 228.185C601.355 227.211 600.643 226.661 600.399 225.831C600.291 225.692 600.185 225.554 600.088 225.414C599.202 224.168 598.108 222.504 597.58 221.051C597.237 220.109 597.364 219.536 597.581 218.636C597.36 218.361 597.236 217.998 597.295 217.569Z" fill="#D19886"/>
<path d="M671.426 284.238C670.824 273.641 669.762 263.07 668.242 252.567C667.002 243.993 663.937 225.03 652.723 224.366C645.404 223.932 639.732 232.169 636.597 237.816C631.962 246.167 630.613 256.022 629.41 265.385C628.852 269.723 620.839 320.511 622.964 321.051C637.959 323.885 658.896 330.354 674.109 329.258C674.638 317.061 672.119 296.424 671.426 284.238Z" fill="#87B4C9"/>
<path d="M654.605 235.533C654.555 234.792 654.454 234.046 654.298 233.295C653.995 231.85 653.609 230.382 652.758 229.183C651.446 227.334 649.04 226.357 646.837 226.782C644.998 227.136 643.44 228.339 642.009 229.561C641.675 229.846 641.344 230.134 641.017 230.424C635.576 235.245 631.477 241.075 626.76 246.553C621.96 252.126 616.555 257.184 610.686 261.577C610.139 261.987 609.582 262.398 609.023 262.809C609.788 262.245 609.113 258.676 609.272 257.694C609.792 254.473 610.337 250.962 610.337 247.668C610.48 246.045 610.608 244.417 610.768 242.796C610.914 241.321 611.185 240.918 609.61 240.583C608.701 240.39 607.764 240.307 606.837 240.256C604.796 240.144 597.709 239.709 596.892 242.496C596.191 244.888 595.49 247.281 594.831 249.685C592.912 256.69 591.301 263.923 591.574 271.242C591.71 274.887 592.331 278.506 593.497 281.959C594.651 285.378 595.782 288.819 599.584 289.737C600.964 290.07 602.405 290.011 603.822 289.95C604.441 289.923 605.06 289.896 605.68 289.869C610.157 289.674 614.307 286.21 617.956 283.81C621.78 281.295 625.489 278.596 629.012 275.661C638.55 267.717 646.493 257.995 651.976 246.742C653.709 243.186 654.866 239.439 654.605 235.533Z" fill="#87B4C9"/>
<path d="M606.902 224.65C607.317 224.503 607.55 224.085 607.423 223.716L598.943 199.021C598.816 198.652 598.378 198.472 597.963 198.619C597.549 198.766 597.315 199.185 597.442 199.554L605.922 224.248C606.047 224.617 606.487 224.797 606.902 224.65Z" fill="#110809"/>
<path d="M604.117 221.526C604.458 220.766 604.784 221.13 605.066 221.514C605.096 221.762 605.175 222.021 605.421 222.123C605.648 222.218 605.897 222.119 606.079 221.97C606.569 221.567 606.973 220.743 607.003 220.104C607.013 220.092 607.028 220.077 607.038 220.065C606.948 219.888 606.91 219.705 606.914 219.525C606.848 219.476 606.77 219.42 606.675 219.356C606.073 218.945 605.615 218.541 605.286 217.94L604.743 216.359C604.482 215.312 605.967 214.745 606.736 216.138C607.261 217.088 608.358 217.17 608.835 217.574C609.431 218.079 609.869 218.711 609.956 219.519C610.156 220.934 610.057 222.302 610.13 223.71C610.234 225.696 610.486 227.505 610.144 229.502C610.058 230.001 609.931 230.531 609.559 230.867C608.958 231.41 607.959 231.186 607.378 230.621C606.914 230.171 606.64 229.56 606.375 228.968C606.125 228.402 605.872 227.837 605.621 227.271C605.128 226.164 604.455 224.906 604.164 223.736C603.621 223.295 603.809 222.215 604.117 221.526Z" fill="#D19886"/>
<mask id="mask0_78_2404" style="mask-type:luminance" maskUnits="userSpaceOnUse" x="627" y="188" width="29" height="29">
<path d="M644.81 214.312C649.004 213.661 648.158 218.117 651.154 215.064C651.845 214.361 654.993 209.553 655.095 208.566C655.582 203.778 653.393 193.618 650.635 190.861C648.047 188.275 642.824 187.917 639.222 188.371C631.872 189.295 626.406 192.189 627.249 203.865C627.729 210.517 632.447 214.544 640.766 214.085C642.434 213.993 642.97 214.187 644.639 214.146C644.862 214.14 645.101 214.145 645.283 214.275C645.464 214.404 644.986 214.171 644.81 214.312Z" fill="white"/>
</mask>
<g mask="url(#mask0_78_2404)">
<path d="M626.734 206.625C628.57 207.81 630.88 207.562 632.492 206.109C633.042 205.612 633.749 206.521 633.203 207.016C631.193 208.83 628.304 209.007 626.052 207.553C625.43 207.153 626.117 206.226 626.734 206.625Z" fill="#13285E"/>
</g>
<path d="M641.173 198.514C641.317 198.18 641.507 197.889 641.759 197.662C642.859 197.695 643.891 198.337 644.303 199.45C644.766 200.7 644.334 202.536 642.832 202.716C642.128 202.8 641.383 202.603 640.796 202.2C640.776 201.826 640.763 201.424 640.766 201.016C640.827 200.169 640.955 199.335 641.173 198.514Z" fill="#E0AC9B"/>
<path d="M641.606 205.77C642.034 207.067 642.626 208.32 643.507 209.497C645.382 211.998 648.431 213.78 651.501 213.39C653.072 213.19 654.533 212.452 655.836 211.539C658.77 209.485 661.083 206.404 661.855 202.869C662.627 199.333 661.719 195.372 659.198 192.814C663.997 191.794 668.087 187.972 669.604 183.235C671.122 178.498 670.06 173.025 666.984 169.146C663.908 165.267 658.936 163.06 654.038 163.276C650.586 163.429 647.109 164.8 644.799 167.412C642.489 170.025 641.528 173.94 642.793 177.208C643.404 178.786 644.478 180.154 645.016 181.761C644.778 181.062 641.3 181.57 640.771 181.611C638.505 181.786 636.512 182.179 634.319 182.8C631.566 183.499 628.651 182.845 626.202 184.339C625.708 184.641 625.211 184.945 624.794 185.35C623.813 186.304 623.383 187.806 623.708 189.145C624.033 190.485 625.098 191.613 626.403 191.995C627.918 192.439 629.743 192.321 631.315 192.504C633.125 192.714 634.917 193.083 636.663 193.611C637.357 193.821 638.058 194.064 638.632 194.512C639.91 195.508 640.028 197.8 640.283 199.29C640.657 201.462 640.912 203.668 641.606 205.77Z" fill="#110809"/>
<path d="M644.115 261.105C638.58 266.643 634.123 272.604 626.985 276.672C625.977 277.247 626.898 278.684 627.923 278.118C635.008 274.214 640.986 268.31 645.501 262.068C646.046 261.318 644.788 260.432 644.115 261.105Z" fill="#6498B0"/>
<path d="M631.458 148.595C631.414 146.588 631.817 144.159 629.761 143.115C627.5 141.969 624.151 142.353 621.746 142.374C618.173 142.406 614.602 142.604 611.036 142.821C608.049 143.003 604.449 142.68 601.562 143.45C599.519 143.994 600.017 146.12 600.009 147.861C600.009 147.975 600.03 148.073 600.065 148.16C598.797 148.338 597.626 148.686 596.738 149.343C594.364 151.106 595.391 155.496 595.463 158.003C595.53 160.286 595.58 162.572 595.77 164.847C595.888 166.274 595.853 168.167 596.697 169.403C597.038 169.904 597.447 170.19 597.989 170.406C598.331 170.543 599.428 170.49 599.664 170.669C600.71 171.458 599.64 175.983 599.602 177.153C599.584 177.698 600.046 177.933 600.458 177.861C600.719 178.071 601.091 178.116 601.382 177.792C602.595 176.448 603.851 175.154 605.181 173.93C606.651 172.578 608.848 170.063 610.893 169.863C614.239 169.538 617.743 171.273 621.091 170.58C622.675 170.253 623.395 169.272 623.764 168.039C625.574 167.894 628.748 168.236 629.928 166.617C631.175 164.904 630.974 161.099 631.14 159.081C631.427 155.594 631.535 152.093 631.458 148.595ZM621.011 169.086C620.226 169.494 618.625 169.125 617.786 169.044C614.865 168.761 611.047 167.513 608.452 169.299C605.794 171.131 603.385 173.445 601.172 175.83C601.342 174.254 601.664 172.692 601.732 171.126C601.775 170.174 601.648 169.688 600.697 169.334C600.356 169.208 600.009 169.289 599.664 169.175C597.166 168.348 597.407 166.86 597.239 164.847C597.075 162.876 597.017 160.899 596.958 158.922C596.902 157.062 596.4 154.451 596.789 152.634C597.522 149.202 601.383 149.7 603.932 149.603C608.12 149.445 612.316 149.631 616.502 149.741C617.435 149.765 618.371 149.768 619.304 149.813C621.283 149.907 621.687 150.08 622.287 152.075C622.872 154.028 622.834 156.405 622.908 158.447C622.988 160.646 622.937 162.855 622.74 165.048C622.611 166.488 622.504 168.309 621.011 169.086ZM629.867 156.225C629.748 158.448 629.554 160.668 629.287 162.878C629.047 164.861 629.171 165.992 626.986 166.226C626.013 166.329 625.039 166.419 624.067 166.514C624.127 166.031 624.168 165.537 624.211 165.047C624.574 160.905 624.444 156.723 623.848 152.61C623.416 149.633 622.858 148.442 619.773 148.331C615.429 148.173 611.069 148.035 606.724 148.055C605.268 148.061 603.335 147.921 601.463 148.026C601.473 147.975 601.479 147.921 601.479 147.863C601.484 146.619 601.099 145.547 602.214 144.861C602.927 144.423 605.045 144.686 605.897 144.633C608.098 144.497 610.297 144.356 612.498 144.228C617.064 143.963 621.718 143.624 626.289 143.939C627.789 144.042 629.216 144 629.889 145.736C630.266 146.706 629.997 148.505 630.009 149.55C630.031 151.775 629.987 154.002 629.867 156.225Z" fill="#87B4C9"/>
<path d="M619.473 154.406C613.181 154.25 606.892 154.293 600.603 154.536C599.659 154.572 599.655 156.068 600.603 156.03C606.892 155.787 613.181 155.744 619.473 155.9C620.421 155.922 620.419 154.428 619.473 154.406Z" fill="#87B4C9"/>
<path d="M618.574 157.932H600.115C599.169 157.932 599.168 159.426 600.115 159.426H618.574C619.52 159.426 619.522 157.932 618.574 157.932Z" fill="#87B4C9"/>
<path d="M618.574 161.336H600.115C599.169 161.336 599.168 162.83 600.115 162.83H618.574C619.52 162.83 619.522 161.336 618.574 161.336Z" fill="#87B4C9"/>
<path opacity="0.13" d="M206.739 549.771C197.793 550.008 188.863 550.323 179.997 550.419C152.718 550.718 125.441 551.169 98.1676 551.775C74.9118 552.291 50.9268 548.628 29.5927 560.873C26.9979 562.349 24.3322 564.272 23.5101 567.176C22.6009 570.387 24.3352 573.906 26.9388 575.948C29.5425 577.991 32.8472 578.84 36.0812 579.455C48.2995 581.78 60.8366 581.459 73.2631 581.13C138.175 579.41 203.111 577.688 267.888 573.105C272.975 572.745 278.181 572.337 282.829 570.209C285.392 569.034 287.944 567.002 288.254 564.161C288.756 559.563 283.478 556.758 279.082 555.551C255.481 549.068 231.049 549.128 206.739 549.771Z" fill="#110809"/>
<path d="M237.89 552.668C238.073 552.326 238.252 551.982 238.426 551.643C238.876 550.761 239.301 549.758 239.031 548.804C238.771 547.889 237.946 547.281 237.195 546.714C235.137 545.16 233.243 543.38 231.559 541.413C229.701 539.244 228.083 536.84 225.946 534.956C221.528 531.059 213.766 530.789 210.001 535.82C209.307 536.747 208.761 537.819 208.61 538.974C208.249 541.758 210.178 544.259 212.005 546.365C214.367 549.086 216.762 551.78 219.192 554.439C221.378 556.833 223.527 559.367 225.987 561.494C226.505 561.941 227.019 562.368 227.524 562.8C228.243 563.417 233.177 558.983 233.772 558.425C235.457 556.844 236.773 554.756 237.89 552.668Z" fill="#CF9F8F"/>
<path d="M112.476 557.146C112.137 556.305 111.563 555.625 110.87 555.093C110.68 554.856 110.465 554.637 110.196 554.455C109.808 554.193 109.374 554.028 108.925 553.938C105.787 543.555 95.3488 535.159 84.822 533.965C84.7836 527.46 84.7039 520.956 84.6183 514.456C84.419 499.282 84.7954 483.777 83.2161 468.678C83.0582 467.169 80.9121 467.101 80.8545 468.678C80.2951 483.876 81.436 499.246 81.6427 514.456C81.7283 520.78 81.7549 527.104 81.7681 533.43C69.6945 533.427 57.8717 542.551 55.1898 554.592C53.1293 555.148 51.1042 556.755 50.5699 558.732C49.891 561.249 51.4895 563.943 53.9529 564.57C55.1072 564.864 56.2983 564.675 57.3197 564.156C59.3492 563.467 61.0421 561.703 61.1617 559.447C61.2739 557.34 60.065 555.375 58.192 554.665C62.068 543.934 69.6413 537.201 81.6825 535.845C81.7135 535.858 81.7416 535.873 81.7755 535.885C81.7859 542.073 81.7859 548.259 81.8183 554.446C81.5305 554.518 81.2589 554.623 81.008 554.754C80.0324 555.178 79.1792 555.906 78.7113 556.86C77.3534 559.629 79.1586 563.256 82.1755 563.716C84.5903 564.085 86.8338 562.362 87.1511 560.146C87.2854 559.917 87.4035 559.68 87.4788 559.437C87.9511 557.914 87.34 556.293 86.1637 555.289C85.7932 554.974 85.3017 554.728 84.7585 554.559C84.8471 548.583 84.8574 542.602 84.8338 536.622C89.6751 537.841 94.1606 539.559 98.0942 543.018C101.728 546.213 103.786 549.948 105.586 554.085C105.182 554.202 104.789 554.358 104.423 554.569C101.749 556.114 102.438 559.462 104.308 561.352C105.334 562.617 106.986 563.413 108.602 563.298C111.66 563.079 113.66 560.085 112.476 557.146Z" fill="#110809"/>
<path d="M95.8685 455.699C84.8354 454.353 73.4776 454.704 62.6231 456.787C56.8918 457.888 47.9133 460.551 47.5738 466.161C47.0247 475.192 61.4925 478.108 70.2643 478.675C85.1572 479.637 101.979 480.4 115.824 475.086C119.219 473.782 122.692 471.774 123.325 468.804C123.821 466.479 122.366 464.097 120.209 462.489C118.053 460.881 115.276 459.924 112.51 459.113C107.124 457.529 101.539 456.389 95.8685 455.699Z" fill="#69418C"/>
<path d="M268.018 540.684C267.814 540.646 267.6 540.621 267.374 540.607C265.856 540.517 264.371 541.032 262.945 541.57C257.509 543.625 252.139 546.172 246.367 546.742C243.596 547.015 240.56 546.337 238.029 545.008C237.924 545.074 237.843 545.169 237.742 545.241C237.716 545.335 237.691 545.428 237.666 545.523C237.237 548.607 236.063 551.43 234.014 553.921C231.933 556.453 229.325 557.854 226.718 559.326C225.369 560.455 224.514 561.748 225.759 563.611C226.99 565.456 228.228 567.31 229.751 568.914C231.41 570.661 233.607 572.154 235.992 572.005C237.33 571.921 238.584 571.329 239.778 570.706C243.509 568.761 247.032 566.434 250.548 564.112C254.003 561.831 257.459 559.549 260.914 557.266C263.208 555.751 265.519 554.223 267.469 552.273C269.094 550.647 271.46 547.845 271.386 545.359C271.324 543.259 270.167 541.078 268.018 540.684Z" fill="#94A5B5"/>
<path d="M239.687 527.358C238.863 526.346 238.109 525.263 237.334 524.21C236.13 522.573 234.853 520.991 233.511 519.47C232.838 518.706 232.128 517.943 231.225 517.487C230.435 517.089 229.545 516.953 228.673 516.821C227.324 516.618 225.956 516.414 224.602 516.585C222.311 516.873 220.186 518.291 219.013 520.311C216.028 525.455 221.46 531.734 224.319 535.817C227.82 540.818 231.913 545.391 236.487 549.399C237.876 550.616 240.643 550.362 241.975 549.023C244.825 546.158 247.219 542.822 249.031 539.187C249.966 537.314 251.241 533.867 249.262 532.172C248.296 531.345 247.212 531.81 246.015 531.621C244.58 531.395 243.216 530.702 242.081 529.796C241.19 529.085 240.412 528.248 239.687 527.358Z" fill="#E0AC9B"/>
<path d="M277.078 525.792C276.874 525.755 276.66 525.729 276.434 525.716C274.916 525.626 273.431 526.14 272.005 526.679C266.569 528.734 261.199 531.281 255.426 531.851C252.656 532.124 249.62 531.446 247.089 530.117C246.984 530.183 246.903 530.277 246.802 530.351C246.776 530.445 246.751 530.538 246.725 530.633C246.297 533.717 245.122 536.54 243.074 539.031C240.993 541.563 238.385 542.964 235.778 544.436C234.427 545.565 233.574 546.858 234.819 548.721C236.05 550.566 237.288 552.42 238.811 554.024C240.256 555.546 242.286 556.968 244.361 557.418C246.585 557.901 248.498 556.43 250.293 555.203C256.767 550.781 262.616 545.324 269.655 541.907C272.272 540.635 275.071 539.636 277.321 537.774C280.352 535.272 282.91 526.865 277.078 525.792Z" fill="#C9CDD1"/>
<path d="M117.205 413.462L117.209 413.46C117.189 413.385 117.175 413.306 117.156 413.231L117.205 413.462Z" fill="#E6AC8E"/>
<path d="M104.509 352.119L104.757 353.313V353.315L104.509 352.119Z" fill="#E6AC8E"/>
<path d="M117.004 412.554C117.045 412.785 117.103 413.007 117.159 413.231L116.979 412.362C116.989 412.427 116.992 412.491 117.004 412.554Z" fill="#E6AC8E"/>
<path d="M134.782 409.905L117.21 413.462C118.468 417.917 122.869 420.767 127.453 419.925C132.146 419.063 135.313 414.648 134.782 409.905Z" fill="#E6AC8E"/>
<path d="M231.863 530.28C234.064 528.429 236.299 526.623 238.59 524.897C222.42 495.215 195.355 467.238 187.901 460.244C176.902 449.924 149.021 442.391 140.582 439.836C128.938 436.311 112.018 430.34 99.8234 434.861C91.9165 437.792 86.8316 446.064 87.0737 454.926C87.3099 463.524 93.081 472.455 102.206 472.737C102.408 472.743 102.606 472.722 102.806 472.728C113.522 473.069 124.397 473.147 135.116 472.907C144.328 472.701 151.925 475.328 160.102 480.002C166.142 483.455 171.675 487.74 177.188 492.011C189.808 501.788 211.348 522.504 225.999 534.776C227.92 533.241 229.887 531.755 231.863 530.28Z" fill="#6498B0"/>
<path d="M147.56 430.692C146.064 429.132 144.567 427.574 143.07 426.014C141.078 423.938 139.079 421.856 136.833 420.066C136.278 419.624 135.684 419.19 134.994 419.046C133.734 418.785 133.606 419.48 133.023 420.251C132.325 421.173 131.244 421.749 130.4 422.526C129.913 422.973 126.332 426.777 125.901 426.603C130.687 430.127 135.47 433.649 140.255 437.172C143.454 439.527 147.573 436.788 149.817 434.12C149.976 433.929 150.14 433.697 150.09 433.452C150.058 433.296 149.944 433.175 149.835 433.061C149.076 432.272 148.319 431.481 147.56 430.692Z" fill="#E0AC9B"/>
<path d="M124.434 428.715C125.916 430.398 127.439 432.047 128.917 433.724C130.512 435.536 132.226 437.426 134.514 438.135C137.265 438.987 140.325 437.891 142.508 435.989C144.564 434.196 146.049 431.543 145.87 428.796C145.7 426.168 144.097 423.896 142.621 421.731C136.402 412.605 131.216 402.477 127.897 391.874C122.146 373.511 122.493 349.776 105.497 337.508C103.133 335.801 99.5843 336.002 98.5068 339.159C97.3614 342.516 98.6588 348.162 99.0131 351.659C99.8145 359.58 101.797 367.071 103.072 374.838C104.49 383.472 106.008 392.123 108.61 400.484C110.648 407.036 113.403 413.45 117.107 419.178C117.885 419.178 121.512 425.252 122.231 426.131C122.945 427.002 123.684 427.863 124.434 428.715Z" fill="#9B9EA1"/>
<path d="M108.682 369.339C108.854 369.309 109.048 369.276 109.285 369.236L108.682 369.339Z" fill="#C9CDD1"/>
<path d="M108.094 369.44C108.094 369.44 108.178 369.425 108.3 369.404L108.094 369.44Z" fill="#C9CDD1"/>
<path d="M215.507 556.432C216.599 555.441 232.375 543.094 233.911 541.737C231.762 539.161 198.484 489.594 183.957 476.275C176.338 469.29 131.976 446.265 118.112 441.642C109.285 438.699 100.469 435.294 91.179 434.224C86.934 433.735 82.6182 434.392 78.4337 433.714C75.0433 433.165 71.6205 432.856 68.1947 432.643C64.8943 432.438 64.5755 431.533 62.4678 429.204C61.1645 427.764 58.952 427.264 57.1704 428.008C54.3188 429.199 53.3196 432.766 53.0598 435.889C52.3336 444.63 54.6952 453.581 59.5261 460.839C64.4353 468.215 71.3932 471.984 79.34 475.222C87.3753 478.497 95.7309 480.871 104.069 483.238C115.024 486.349 125.979 489.46 136.933 492.57C143.268 494.368 149.646 496.185 155.533 499.167C162.47 502.683 167.429 508.525 173.481 513.198C180.114 518.32 186.13 524.586 192.357 530.212C197.785 535.114 210.081 551.53 215.507 556.432Z" fill="#87B4C9"/>
<path d="M91.2996 436.949C92.8907 436.872 94.4803 436.767 96.067 436.623C98.6353 436.391 101.258 436.179 103.745 435.447C105.629 434.894 107.295 433.601 109.169 433.376C111.327 412.847 110.722 391.596 111.462 370.949C111.769 362.352 111.941 355.139 108.954 347.009C106.566 340.509 101.937 335.546 95.2582 333.657C89.8959 332.141 84.169 332.766 78.8569 334.485C68.3729 337.878 60.218 344.618 55.0652 354.366C49.8801 364.175 48.1325 375.443 46.9354 386.376C44.9163 404.829 44.2048 423.44 45.0358 441.987C45.0742 442.835 45.1509 443.766 45.7428 444.363C46.6314 445.256 48.103 444.906 49.2911 444.515C62.5987 440.127 77.406 437.616 91.2996 436.949Z" fill="#C9CDD1"/>
<path d="M91.1154 346.419C85.9804 345.477 82.6623 340.367 83.8284 335.198L88.3346 313.775C88.3435 313.734 95.8401 315.152 96.3404 315.243C98.2504 315.594 100.159 315.948 102.07 316.295C104.205 316.682 105.967 316.253 106.391 319.086C106.568 320.273 106.324 321.48 106.014 322.638C105.211 325.647 103.976 328.509 103.025 331.47C102.138 334.233 102.185 336.996 101.554 339.743C100.495 344.358 95.5759 347.237 91.1154 346.419Z" fill="#E0AC9B"/>
<path d="M118.551 457.11C117.088 456.57 102.142 451.253 95.5743 448.916C94.8923 448.673 95.037 447.659 95.7573 447.611L142.042 444.567C142.124 444.561 142.206 444.572 142.285 444.597L170.313 453.627C171.02 453.855 170.881 454.91 170.14 454.941L118.799 457.146C118.714 457.152 118.632 457.14 118.551 457.11Z" fill="#2B417A"/>
<path d="M93.9843 329.214C88.0803 326.049 85.8176 318.621 88.9305 312.62C90.0744 310.415 91.2198 308.208 92.3637 306.003C93.2877 304.221 93.9725 302.306 95.0603 300.612C95.4293 300.039 95.7186 299.168 96.1334 298.664C96.678 298.001 97.7585 298.05 98.5481 297.975C102.96 297.554 107.385 298.391 111.634 299.54C112.374 299.739 113.121 299.954 113.775 300.36C114.369 300.729 114.862 301.242 115.33 301.769C115.89 302.399 116.647 303.155 117.031 303.909C117.727 305.28 117.532 307.676 117.425 309.18C117.277 311.25 116.802 313.292 116.093 315.236C114.428 319.799 111.559 324.555 107.788 327.618C103.949 330.735 98.3946 331.578 93.9843 329.214Z" fill="#E0AC9B"/>
<path d="M103.009 433.88C101.053 432.989 99.0977 432.096 97.142 431.205C94.5384 430.019 91.9258 428.829 89.1908 428.004C88.5148 427.8 87.8063 427.617 87.1111 427.743C85.8447 427.971 85.9776 428.664 85.7148 429.599C85.399 430.716 84.6034 431.657 84.0986 432.695C83.8078 433.293 81.8521 438.167 81.3887 438.167C87.1126 439.656 92.8365 441.146 98.5605 442.634C102.386 443.63 105.228 439.544 106.348 436.224C106.428 435.987 106.495 435.711 106.36 435.503C106.274 435.371 106.123 435.299 105.98 435.234C104.988 434.781 103.998 434.33 103.009 433.88Z" fill="#E0AC9B"/>
<path d="M121.44 437.439C117.934 435.789 116.224 436.476 112.175 436.887C110.646 437.042 109.068 434.963 110.584 434.679C114.771 433.893 119.897 433.335 123.237 436.323C124.012 437.015 122.731 438.047 121.44 437.439Z" fill="#E0AC9B"/>
<path d="M98.7665 435.509C99.1178 435.209 99.4986 434.951 99.8956 434.747C102.093 433.611 104.7 433.698 107.143 434.037C110.755 434.54 114.318 435.53 117.664 437.003C120.251 438.141 117.63 439.727 116.27 440.733C114.439 442.089 112.533 443.352 110.71 444.768C110.262 445.116 109.8 445.472 109.255 445.626C108.76 445.766 108.236 445.728 107.726 445.674C105.296 445.413 102.907 444.786 100.657 443.819C98.9096 443.067 96.7754 441.788 96.7399 439.635C96.7119 438.048 97.568 436.532 98.7665 435.509Z" fill="#E0AC9B"/>
<path d="M117.13 451.778C115.072 447.414 111.697 444.354 107.683 442.595C105.797 441.767 105.385 444.098 107.153 444.869C110.38 446.276 113.109 448.62 114.993 452.012C115.745 453.368 117.797 453.192 117.13 451.778Z" fill="#E0AC9B"/>
<path d="M125.322 451.896C121.627 442.938 116.85 438.797 108.191 437.682C106.669 437.487 106.555 439.83 108.052 440.106C115.039 441.398 120.4 444.698 122.948 451.383C123.501 452.838 125.914 453.329 125.322 451.896Z" fill="#E0AC9B"/>
<path d="M120.649 452.354C118.912 448.88 116.909 445.187 114.056 442.514C111.455 440.079 108.311 439.379 104.915 438.858C103.396 438.626 103.361 441.056 104.862 441.287C108.409 441.831 111.283 442.787 113.684 445.635C115.674 447.993 116.973 449.495 118.35 452.25C119.046 453.641 121.346 453.746 120.649 452.354Z" fill="#E0AC9B"/>
<path d="M118.444 437.399C117.177 436.53 115.445 438.218 116.725 439.094C120.965 441.999 122.825 443.15 125.069 447.827C125.739 449.223 127.749 449.069 127.073 447.662C124.651 442.613 123.032 440.541 118.444 437.399Z" fill="#E0AC9B"/>
<path d="M88.1571 438.02C90.6368 434.37 92.4995 430.371 94.5512 426.479C92.6087 425.276 90.6516 424.097 88.8597 422.654C85.5476 419.985 82.4716 416.907 79.8251 413.556C75.0635 407.528 70.4097 399.768 69.5359 391.913C68.6444 383.9 72.051 373.742 74.1587 366.059C74.8643 363.488 75.6377 360.902 75.7263 358.235C75.8148 355.568 75.1255 352.754 73.2746 350.861C68.3743 345.848 61.7426 350.534 58.4585 354.719C52.3818 362.46 48.9605 372.189 48.1369 382.056C46.6372 399.996 52.9265 417.072 64.4378 430.52C70.299 437.367 76.2679 441.042 83.5313 444.536C85.0664 442.365 86.6546 440.229 88.1571 438.02Z" fill="#9B9EA1"/>
<path d="M78.3218 280.031L77.2266 274.185C77.1159 273.594 76.3646 273.35 75.8923 273.633C73.4436 275.106 71.4968 271.607 73.2975 269.964C73.6975 269.6 73.6399 268.749 73.113 268.515C71.3256 267.716 69.5485 267.113 67.6311 266.7C67.1485 266.597 66.6555 266.841 66.5138 267.345C65.5455 269.837 64.0843 270.462 62.1301 269.234C62.1537 269.223 62.1803 269.213 62.2039 269.202C63.271 268.727 62.3485 267.137 61.2873 267.609C59.8467 268.251 57.3567 269.112 56.8563 270.824C56.6984 271.365 56.8032 271.778 56.9552 272.316C57.0423 272.627 57.463 273.048 57.4763 273.35C57.5235 274.427 56.6866 274.542 55.8394 273.878C55.3611 273.503 54.6482 273.917 54.5051 274.43C53.9929 276.263 53.4822 278.094 52.97 279.927C52.8032 280.526 53.2652 281.07 53.8453 281.096C56.6172 281.217 58.8312 284.127 56.3102 286.269C55.8276 286.679 56.0563 287.409 56.4947 287.718C57.9988 288.779 59.5028 289.838 61.0068 290.898C61.4998 291.245 62.1906 290.883 62.3412 290.346C62.6349 289.775 62.9301 289.203 63.2253 288.632C64.3397 288.473 65.4526 288.315 66.5669 288.156C68.7662 288.86 67.3197 289.472 68.2348 290.229C68.6378 290.562 68.871 290.888 69.3979 290.967C71.1676 291.239 73.5883 288.837 74.9846 287.973C75.4657 287.675 75.6074 286.935 75.1691 286.524C72.5964 284.111 75.2355 281.553 77.6901 281.168C78.1993 281.085 78.4045 280.473 78.3218 280.031ZM73.1543 286.998C72.3617 287.564 71.5145 288.186 70.7042 288.459C69.4702 288.875 69.9986 289.038 69.0289 287.934C68.2245 287.019 67.3551 286.326 66.1345 286.07C63.9013 285.6 62.0223 286.805 61.0526 288.686C60.1552 288.053 59.2563 287.42 58.3589 286.787C60.6866 283.883 58.3309 280.245 55.0025 279.414C55.3095 278.312 55.618 277.211 55.925 276.108C57.2371 276.791 58.8976 277.061 59.6342 275.39C59.9412 274.694 59.7788 274.019 59.5353 273.347C59.0733 272.069 58.1434 272.052 59.7331 270.444C59.8629 270.312 60.0268 270.194 60.2054 270.084C62.8489 272.624 66.5507 271.853 67.9603 268.67C69.054 268.937 70.1064 269.262 71.1543 269.673C69.1558 272.819 72.1241 276.785 75.6753 275.729C75.9159 277.01 76.155 278.289 76.3956 279.57C73.1366 280.548 71.0687 284.096 73.1543 286.998Z" fill="#87B4C9"/>
<path d="M69.4585 277.004C68.6792 275.648 67.1397 274.991 65.6652 275.126C65.5117 275.073 65.3346 275.064 65.1338 275.126C64.8209 275.222 64.5257 275.36 64.2497 275.525C64.1139 275.594 63.9796 275.667 63.8512 275.753C63.7361 275.829 63.6505 275.919 63.5855 276.015C62.3752 277.109 61.7951 278.877 62.452 280.499C63.2697 282.513 65.8379 283.556 67.7803 282.585C69.7227 281.616 70.5581 278.915 69.4585 277.004ZM67.1102 280.863C66.1671 281.433 64.784 280.974 64.2409 280.037C63.6741 279.059 64.1125 277.871 64.9493 277.248C65.8896 276.737 67.1368 276.873 67.7966 277.803C68.4726 278.754 68.0844 280.272 67.1102 280.863Z" fill="#87B4C9"/>
<path d="M90.3604 257.483C89.2696 254.801 86.2364 253.289 83.5132 254.258C83.2638 254.346 83.0999 254.508 83.0025 254.699C80.9878 256.002 80.0977 258.711 81.1324 260.979C82.2911 263.522 85.3095 264.869 87.9073 263.852C90.4652 262.851 91.3744 259.976 90.3604 257.483ZM87.0113 262.217C83.2254 263.352 80.6793 257.805 84.4387 255.995C84.5125 255.959 84.5744 255.918 84.6291 255.873C86.0844 255.63 87.5958 256.269 88.4017 257.601C89.4201 259.286 89.0438 261.608 87.0113 262.217Z" fill="#87B4C9"/>
<path d="M102.36 256.068C102.041 254.231 101.652 252.423 101.184 250.62C101.067 250.169 100.524 249.801 100.066 249.975C99.2103 250.301 98.1904 250.901 97.2812 251.018C96.0104 251.616 95.1764 250.76 94.7809 248.45C95.2192 247.791 95.7211 247.187 96.2864 246.641C96.6687 246.24 96.6391 245.462 96.1034 245.192C94.9004 244.589 92.3927 242.567 90.9565 242.943C89.3241 243.371 89.5676 245.628 88.2599 246.483C84.6762 248.829 85.0732 243.96 83.2577 243.198C82.0208 242.679 79.4305 244.374 78.3426 244.883C77.919 245.081 77.7581 245.763 78.0164 246.146C78.4504 246.722 78.8017 247.349 79.0674 248.027C78.4519 249.665 77.6578 250.134 76.6836 249.435C75.7095 249.179 74.7752 248.25 73.8955 247.76C73.5486 247.566 73.0763 247.602 72.7958 247.904C72.1671 248.576 71.5398 249.246 70.911 249.917C70.8844 249.945 70.8652 249.975 70.8431 250.005C70.3663 250.377 70.2158 251.162 70.9021 251.493C72.5375 252.035 73.1427 253.449 72.7147 255.738C72.1169 256.139 71.4778 256.376 70.7959 256.449C70.48 256.655 70.1346 256.731 69.9162 257.072C69.0424 258.438 70.4741 261.621 70.8077 262.979C70.9626 263.607 71.6268 263.763 72.142 263.531C75.7729 264.192 76.8371 265.349 75.3375 266.999C75.3065 267.072 75.277 267.146 75.246 267.219C75.0836 267.699 74.9656 267.834 75.091 268.307C75.4689 269.736 78.1936 271.257 79.2002 272.132C79.646 272.519 80.3028 272.483 80.626 271.946C80.964 271.385 82.2437 269.435 83.0762 269.403C84.6954 269.342 84.8651 272.081 84.8415 273.158C84.8282 273.807 85.4304 274.143 85.9913 274.047C87.4392 273.798 90.6008 273.93 91.5632 272.603C91.8805 272.163 91.8008 271.713 91.8613 271.221C91.7993 270.363 91.9602 269.552 92.341 268.784C94.0237 267.545 95.6133 267.482 97.1085 268.592C97.5646 268.824 98.0664 268.7 98.3513 268.26C99.352 266.714 100.353 265.167 101.353 263.621C101.621 263.207 101.438 262.595 101.027 262.358C100.517 262.107 100.046 261.795 99.6133 261.425C97.8701 260.427 98.493 259.032 101.48 257.243C102.114 257.202 102.465 256.676 102.36 256.068ZM96.4694 258.881C96.1934 260.967 97.7092 262.406 99.2959 263.442C98.6126 264.5 97.9292 265.556 97.2443 266.613C95.2119 265.694 92.9063 265.188 91.2488 267.158C90.3573 268.218 90.4916 269.123 90.0709 270.342C89.6281 271.623 90.3455 270.981 89.3388 271.605C88.7293 271.982 87.5986 272.067 86.626 272.145C86.4769 270.3 85.8083 267.867 84.012 267.437C82.2924 267.024 80.6467 268.712 79.6164 270.164C78.8829 269.637 78.0342 269.024 77.7286 268.425C77.0777 267.152 77.6858 266.951 77.9648 265.928C78.2762 264.791 78.1788 263.591 77.4703 262.625C76.167 260.843 74.0962 260.915 72.2601 261.528C71.9191 260.526 71.4645 259.203 71.6165 258.648C71.8763 257.694 71.3848 258.78 72.5139 258.005C73.5427 257.298 74.4091 256.881 74.9021 255.624C75.7493 253.467 74.5405 251.652 72.8682 250.505C73.1132 250.244 73.3567 249.983 73.6017 249.72C75.3966 250.847 77.5382 252.513 79.6061 251.201C81.5485 249.968 81.0408 247.788 80.1153 246.081C80.6747 245.829 81.24 245.586 81.8142 245.367C82.5212 244.752 82.9182 244.955 83.0024 245.979C83.516 246.465 83.7994 247.344 84.2909 247.881C84.9699 248.619 85.7389 249.218 86.7809 249.222C88.133 249.23 89.3979 248.078 90.1698 247.071C90.3514 246.834 90.9359 245.339 91.2075 245.211C91.9248 244.874 93.2296 245.615 94.2244 246.218C92.8975 247.827 91.7816 249.938 93.1292 251.894C94.6687 254.13 97.541 252.98 99.6738 252.108C99.9483 253.238 100.193 254.372 100.409 255.513C98.5624 255.828 96.7513 256.757 96.4694 258.881Z" fill="#87B4C9"/>
<path d="M120.302 301.1C119.988 299.538 119.25 298.067 118.131 296.949C114.76 293.582 109.583 293.664 105.554 291.678C104.104 290.964 102.729 290.093 101.243 289.464C96.8101 287.589 92.3659 289.913 89.3253 293.415C86.9652 296.132 85.5453 299.618 85.0183 303.203C84.8545 304.314 84.7748 305.45 84.943 306.561C85.1954 308.216 85.9881 309.69 86.4958 311.265C86.9888 312.794 86.6759 314.439 87.3076 315.888C87.8345 317.102 89.0257 316.248 89.622 315.704C90.5519 314.856 93.8315 309.731 95.03 310.857C95.1658 310.985 95.2588 311.153 95.3976 311.277C95.8256 311.66 96.5415 311.466 96.9178 311.03C97.2942 310.595 97.4241 309.999 97.5555 309.435C98.0234 307.422 98.9016 305.21 100.81 304.491C102.903 303.704 105.046 305.369 106.615 306.525C108.434 307.865 110.618 308.907 112.817 309.48C115.834 310.266 118.267 309.236 119.681 306.35C120.47 304.737 120.656 302.862 120.302 301.1Z" fill="#13285E"/>
<path d="M94.8556 307.974C93.2276 308.256 91.4431 309.621 91.3324 311.387C91.2586 312.569 91.9671 314.642 93.2807 314.529C93.3899 314.595 93.4992 314.651 93.6025 314.684C93.7516 314.73 93.9183 314.754 94.0896 314.768C94.1087 314.775 94.1265 314.786 94.1486 314.792C96.0822 315.216 97.5759 313.044 97.8061 311.324C98.0452 309.533 96.7921 307.64 94.8556 307.974Z" fill="#E0AC9B"/>
<path d="M104.255 286.788C103.349 283.62 100.051 281.505 96.9457 282.141C94.8631 282.569 92.9104 283.808 92.0277 285.833C90.7067 288.867 93.241 294.839 96.866 294.903C98.1767 294.926 99.4239 294.344 100.54 293.646C101.682 292.932 102.763 292.065 103.51 290.933C104.256 289.8 104.64 288.369 104.32 287.045C104.301 286.958 104.279 286.872 104.255 286.788Z" fill="#13285E"/>
<path d="M108.771 322.248C107.946 322.272 107.308 323.012 106.483 323.213C105.373 323.483 103.781 323.34 103.252 322.145C103.121 321.848 102.653 322.059 102.74 322.364C103.102 323.631 104.355 324.149 105.564 324.228C106.647 324.3 108.849 323.955 109.063 322.637C109.094 322.449 108.985 322.242 108.771 322.248Z" fill="#110809"/>
<path d="M94.754 310.845C94.1473 310.725 93.3429 310.949 93.2337 311.675C93.1481 312.24 93.5717 312.717 94.1178 312.728C94.4307 312.734 94.6019 312.383 94.5001 312.126C94.5857 312.116 94.6698 312.102 94.7554 312.089C95.3709 311.994 95.3473 310.962 94.754 310.845Z" fill="#110809"/>
<path d="M173.821 455.285L118.086 457.067L128.989 424.007C129.364 422.871 130.344 420.236 131.565 420.104C136.601 419.564 183.4 420.663 183.4 420.663C185.21 420.704 186.463 422.523 185.885 424.272L173.821 455.285Z" fill="#13285E"/>
<path d="M154.66 434.526C152.937 434.697 151.07 436.367 151.624 438.242C151.746 438.659 152.356 438.719 152.598 438.39C153.182 437.597 153.656 436.578 154.763 436.503C155.99 436.419 156.338 437.427 156.918 438.266C157.348 438.887 158.57 438.687 158.593 437.841C158.652 435.866 156.506 434.342 154.66 434.526Z" fill="white"/>
<path d="M211.403 54.186C210.481 54.261 209.551 54.4095 208.602 54.645C200.136 56.739 198.623 62.4315 192.145 66.009C186.509 69.12 178.624 68.0055 172.127 69.8805C169.058 70.7655 166.331 72.336 164.365 74.3475C163.528 75.204 162.816 76.1565 162.517 77.202C161.46 80.8845 165.833 84.309 170.496 85.503C175.157 86.697 180.239 86.469 185.015 87.357C195.39 89.289 198.921 97.227 209.405 98.9775C217.722 100.366 226.76 98.5905 233.385 94.533C234.708 93.723 236.478 91.503 237.908 91.0485C239.806 90.447 241.821 91.491 243.884 91.9215C248.43 92.871 253.196 93.171 257.893 93.018C267.292 92.712 284.163 88.032 276.015 78.519C273.698 75.813 269.863 74.091 265.947 72.8835C260.373 71.1645 254.353 70.299 248.346 70.3515C249.441 66.4095 247.295 62.046 243.078 59.6415C238.863 57.237 232.799 56.9175 228.196 58.8585C228.24 58.8405 219.697 55.107 218.62 54.858C216.143 54.2895 213.8 53.9895 211.403 54.186Z" fill="#C7E1ED"/>
<path d="M224.691 239.5C223.951 239.442 223.206 239.328 222.444 239.148C215.657 237.537 214.444 233.16 209.25 230.41C204.732 228.018 198.412 228.876 193.203 227.433C190.743 226.752 188.557 225.544 186.98 223.998C186.309 223.339 185.739 222.607 185.5 221.803C184.653 218.971 188.16 216.337 191.895 215.419C195.633 214.501 199.706 214.677 203.535 213.993C211.852 212.508 214.683 206.404 223.088 205.057C229.756 203.989 237 205.356 242.313 208.474C243.372 209.097 244.791 210.805 245.938 211.153C247.459 211.617 249.074 210.813 250.729 210.481C254.373 209.751 258.193 209.52 261.96 209.638C269.495 209.874 283.019 213.472 276.486 220.788C274.628 222.868 271.554 224.193 268.416 225.121C263.946 226.443 259.121 227.109 254.306 227.068C255.183 230.1 253.464 233.455 250.084 235.303C246.704 237.153 241.843 237.397 238.153 235.905C238.189 235.918 231.34 238.789 230.476 238.981C228.49 239.421 226.612 239.65 224.691 239.5Z" fill="#C7E1ED"/>
<path opacity="0.13" d="M580.074 665.09C587.216 665.928 594.722 667.047 600.261 671.012C601.499 671.898 602.707 673.184 602.308 674.526C602.076 675.308 601.34 675.899 600.592 676.386C596.029 679.355 590.057 680.06 584.37 680.61C504.793 688.31 424.322 684.957 344.435 689.739C320.593 691.167 296.298 693.29 273.054 688.511C270.399 687.965 267.433 687.092 266.362 684.932C264.61 681.399 269.203 678.033 273.281 676.469C291.883 669.335 312.924 669.125 333.288 668.795C367.35 668.243 401.398 667.025 435.396 665.141C465.207 663.488 494.925 660.851 524.839 661.379C543.315 661.704 561.765 662.942 580.074 665.09Z" fill="#110809"/>
<path d="M433.381 553.241C430.112 550.487 427.235 551.495 424.394 555.008C423.173 556.517 421.488 557.913 419.613 558.986C419.041 559.313 415.978 560.853 417.187 561.564C417.203 561.662 417.235 561.756 417.293 561.845C417.324 561.891 417.353 561.939 417.383 561.986C417.663 562.424 418.375 562.554 418.948 562.469C419.483 562.389 419.985 562.25 420.474 562.089C421.594 562.473 422.822 562.577 424.189 562.506C427.48 562.338 430.717 561.366 433.389 563.55C435.718 565.455 437.678 567.905 439.139 570.548C440.037 572.172 440.764 573.912 441.924 575.354C443.085 576.795 444.816 577.929 446.642 577.769C447.445 577.698 448.212 577.382 448.909 576.969C451.487 575.442 453.207 572.117 452.152 569.28C450.826 565.716 446.532 564.662 443.809 562.536C440.916 560.28 433.479 553.323 433.381 553.241Z" fill="#E0AC9B"/>
<path d="M595.576 593.978C594.357 593.435 592.958 593.504 591.652 593.757C586.368 594.782 581.981 598.539 578.523 602.727C575.789 606.039 573.484 609.713 571.652 613.614C573.85 607.778 575.585 601.76 576.83 595.64C578.056 589.605 578.806 583.374 577.869 577.289C577.568 575.333 576.955 573.203 575.29 572.174C573.661 571.167 571.466 571.586 569.922 572.726C568.38 573.864 567.368 575.591 566.508 577.319C563.243 583.868 561.525 591.081 559.834 598.22C559.09 601.362 558.344 604.503 557.6 607.644C557.581 596.756 557.561 585.843 556.417 575.018C555.971 570.8 555.342 566.549 553.752 562.626C553.007 560.787 551.928 558.912 550.129 558.129C548.352 557.355 546.222 557.861 544.644 558.996C543.066 560.132 541.953 561.812 541.013 563.528C534.688 575.075 534.929 589.239 537.673 602.157C535.018 599.057 531.823 596.433 528.284 594.444C526.653 593.528 524.845 592.727 522.993 592.923C518.851 593.361 516.801 598.263 516.255 602.459C514.292 617.531 520.61 632.409 527.992 645.633C531.67 652.223 535.648 658.634 539.738 664.965C541.761 668.096 544.099 671.141 545.906 674.403C548.312 674.384 550.718 674.36 553.122 674.342C567.631 662.187 579.819 647.184 588.773 630.383C593.312 621.867 597.061 612.789 598.487 603.213C598.999 599.766 598.717 595.379 595.576 593.978Z" fill="#87C98B"/>
<path d="M546.353 668.111C547.513 669.839 548.702 671.834 550.144 673.11C551.81 674.583 552.71 674.33 555.143 674.33C555.183 674.306 555.23 674.291 555.293 674.295C555.406 674.304 555.516 674.319 555.628 674.33C556.464 674.327 557.298 674.324 558.133 674.325C558.657 674.327 559.183 674.327 559.707 674.327C561.698 674.265 563.689 674.202 565.68 674.123C569.067 673.988 572.452 673.793 575.835 673.584C577.323 672.462 578.725 671.349 579.974 670.326C581.827 668.807 583.352 667.484 584.341 666.621C585.168 665.9 586.021 665.145 586.475 664.139C586.931 663.132 586.874 661.796 586.047 661.073C583.374 658.737 573.305 667.088 568.033 669.986C580.534 663.116 589.104 649.248 593.117 635.393C593.6 633.725 593.909 631.785 592.923 630.365C591.968 628.988 590.047 628.595 588.44 629.009C586.833 629.423 585.472 630.485 584.195 631.56C580.53 634.649 577.138 638.073 574.074 641.778C581.15 631.56 586.109 619.836 588.536 607.587C588.881 605.843 589.094 603.791 587.879 602.508C586.751 601.319 584.862 601.343 583.293 601.77C578.927 602.961 575.498 606.543 573.395 610.61C571.292 614.676 570.332 619.235 569.394 623.729C569.947 613.647 570.481 603.357 567.85 593.621C567.518 592.392 567.109 591.128 566.235 590.213C564.716 588.621 562.11 588.536 560.151 589.514C558.192 590.492 556.777 592.316 555.634 594.206C548.522 605.966 549.909 620.918 552.076 634.547C551.36 630.045 538.055 612.501 534.697 622.142C534.225 623.501 534.308 624.989 534.48 626.42C535.955 638.562 543.323 649.008 550.454 658.866C549.062 659.213 547.727 658.247 546.48 657.527C545.233 656.807 543.438 656.397 542.538 657.531C542.147 658.023 542.046 658.691 542.049 659.324C542.063 662.186 543.844 664.686 545.546 666.966C545.817 667.325 546.085 667.71 546.353 668.111Z" fill="#73AB76"/>
<path d="M451.151 441.954C447.975 442.376 444.965 441.779 442.202 440.117C441.277 439.56 440.437 441.024 441.361 441.579C444.347 443.376 447.706 444.105 451.151 443.649C452.201 443.51 452.214 441.813 451.151 441.954Z" fill="#87B4C9"/>
<path d="M459.152 422.076C456.459 421.58 453.796 421.587 451.105 422.1C450.051 422.301 450.498 423.935 451.548 423.735C453.933 423.281 456.321 423.272 458.709 423.711C459.759 423.903 460.209 422.27 459.152 422.076Z" fill="#87B4C9"/>
<path d="M463.526 419.763C458.624 417.749 453.425 417.501 448.351 418.997C447.322 419.3 447.76 420.936 448.794 420.632C453.616 419.211 458.432 419.487 463.083 421.398C464.076 421.806 464.509 420.168 463.526 419.763Z" fill="#87B4C9"/>
<path d="M467.4 416.898C460.648 412.991 452.634 412.713 445.615 416.076C444.645 416.541 445.491 418.002 446.456 417.54C452.919 414.444 460.358 414.774 466.558 418.362C467.492 418.902 468.333 417.438 467.4 416.898Z" fill="#87B4C9"/>
<path d="M464.408 432.816C462.627 429.413 457.527 427.706 454.115 427.409C450.066 427.056 445.82 429.134 444.711 433.2C438.164 430.862 433.671 439.29 437.315 444.936C439.372 448.124 443.182 449.885 446.882 449.775C450.677 449.664 453.763 447.656 456.292 444.968C460.611 450.174 470.017 448.878 472.826 442.478C475.428 436.551 469.772 431.352 464.408 432.816ZM470.239 443.45C466.879 447.365 460 447.842 457.079 443.22C456.806 442.788 456.14 442.622 455.769 443.049C452.121 447.248 446.605 449.894 441.398 446.621C439.107 445.181 437.386 442.629 437.544 439.812C437.756 436.011 441.398 433.298 444.897 435.107C445.321 435.326 446.04 435.177 446.122 434.6C446.683 430.64 450.447 428.747 454.118 429.105C455.954 429.285 457.802 429.822 459.458 430.647C460.305 431.069 461.123 431.582 461.815 432.237C462.602 432.983 462.819 433.619 463.18 434.609C463.242 434.778 463.322 434.957 463.476 435.048C463.651 435.155 463.88 435.117 464.063 435.021C464.245 434.927 464.395 434.781 464.565 434.663C466.541 433.281 469.568 434.904 470.754 436.631C472.224 438.774 471.899 441.515 470.239 443.45Z" fill="#87B4C9"/>
<path d="M428.608 523.536C425.802 520.451 422.853 517.511 419.798 514.683C420.076 514.113 420.3 513.512 420.455 512.88C422.089 506.243 418.808 498.96 412.533 496.454C412.44 496.373 412.327 496.304 412.189 496.259C406.145 494.273 398.719 498.695 397.453 504.974C396.234 511.017 399.674 517.877 405.361 520.181C408.792 521.571 413.01 520.889 416.158 518.769C419.547 521.67 422.549 524.888 425.785 527.96C427.088 529.197 430.111 530.954 431.621 528.897C432.949 527.09 429.606 524.634 428.608 523.536ZM405.276 518.042C400.938 515.775 398.346 510.333 399.271 505.467C400.274 500.193 406.573 496.476 411.634 498.089C411.707 498.143 411.785 498.191 411.879 498.227C418.734 500.841 421.934 511.581 415.915 516.588C415.628 516.659 415.38 516.851 415.237 517.094C412.352 519.093 408.31 519.627 405.276 518.042ZM427.098 526.605C426.6 526.101 426.136 525.558 425.649 525.05C424.884 524.25 424.114 523.46 423.326 522.684C421.509 520.896 419.615 519.2 417.67 517.559C418.071 517.176 418.442 516.767 418.777 516.329C420.417 517.851 422.036 519.396 423.603 520.997C425.608 523.04 428.022 524.819 429.335 527.429C429.236 527.679 428.932 527.793 428.667 527.753C428.405 527.712 428.176 527.552 427.965 527.387C427.659 527.148 427.373 526.883 427.098 526.605Z" fill="#87B4C9"/>
<path d="M412.279 511.712C410.87 512.91 409.33 513.66 407.473 513.195C406.302 512.903 404.998 512.453 404.185 511.518C403.381 510.596 402.064 511.962 402.864 512.882C404.046 514.238 406.126 514.979 407.848 515.217C410.083 515.526 411.96 514.464 413.621 513.054C414.549 512.264 413.202 510.929 412.279 511.712Z" fill="#87B4C9"/>
<path d="M396.124 556.31C395.949 554.757 396.448 553.199 396.662 551.643C397.255 547.335 395.552 544.317 393.475 540.777C393.276 540.437 393.047 540.072 392.679 539.942C392.195 539.769 391.652 540.092 391.386 540.537C391.121 540.983 391.065 541.52 391.003 542.036C390.693 544.64 390.094 547.208 389.22 549.675C388.427 551.916 387.409 554.078 386.756 556.365C386.086 558.716 385.795 561.213 386.755 563.48C387.756 565.844 388.901 568.059 390.259 570.242C392.011 573.059 393.764 575.877 395.516 578.694C396.135 579.689 396.803 581.234 398.108 581.163C399.426 581.093 400.885 580.401 402.127 579.98C404.223 579.27 406.7 578.214 405.685 575.453C405.373 574.608 404.825 573.879 404.284 573.164C402.713 571.088 401.144 569.012 399.574 566.937C398.975 566.145 398.355 565.313 398.024 564.36C397.71 563.459 397.897 562.703 397.838 561.791C397.719 559.935 396.452 558.378 396.158 556.559C396.145 556.475 396.135 556.392 396.124 556.31Z" fill="#E0AC9B"/>
<path d="M529.144 649.055C531.332 643.385 531.363 636.582 532.576 630.588C518.852 624.507 504.489 614.255 491.961 605.666C481.748 598.665 472.289 590.579 462.782 582.638C454.329 575.576 445.575 567.149 436.149 561.572C433.964 560.279 431.561 559.397 429.102 558.801C423.439 557.432 417.299 557.622 411.999 560.072C406.199 562.752 401.166 568.11 402.289 574.745C403.752 583.38 406.278 591.098 410.855 598.587C416.589 607.968 424.269 614.717 429.213 624.528C434.958 635.927 443.665 645.483 452.552 654.42C457.963 659.862 463.574 665.22 470.172 669.077C479.397 674.469 490.389 676.53 500.923 675.183C511.496 673.832 520.22 667.926 526.508 659.135C528.554 656.274 527.881 652.329 529.144 649.055Z" fill="#69418C"/>
<path d="M437.12 578.538C433.153 585.106 427.615 590.588 421.851 595.622C415.417 601.241 408.62 606.414 401.831 611.582C382.71 626.133 363.505 640.74 342.512 652.325C337.887 648.812 333.081 645.547 328.121 642.547C328.183 642.585 339.27 627.135 340.061 626.059C346.529 617.272 353.388 608.805 360.81 600.741C361.94 599.512 363.083 598.296 364.237 597.09C372.482 588.48 381.332 580.47 390.697 573.137C399.612 566.154 408.97 557.789 420.784 557.469C426.667 557.31 430.887 560.274 435.451 563.629C437.389 565.054 438.713 566.004 439.396 568.393C440.267 571.437 439.435 574.442 437.929 577.148C437.666 577.614 437.398 578.079 437.12 578.538Z" fill="#69418C"/>
<path d="M340.486 647.133C338.08 645.653 335.706 644.142 333.213 642.821C332.112 642.237 331.075 641.664 330.151 640.946C328.824 641.555 327.534 643.19 326.389 644.091C323.548 646.331 320.519 648.323 317.35 650.048C311.012 653.496 304.106 655.874 296.999 656.999C294.906 657.33 289.604 657.599 289.467 660.495C289.327 663.437 292.868 666.434 295.237 667.376C297.209 668.159 299.366 668.265 301.482 668.363C311.08 668.804 320.68 669.348 330.29 669.446C334.222 669.485 338.151 669.57 342.083 669.527C342.908 669.518 343.694 669.486 344.432 669.39C347.796 668.957 349.021 666.974 349.215 663.698C349.313 662.069 349.41 660.44 349.508 658.811C349.63 656.769 349.751 654.728 349.874 652.686C346.804 650.73 343.551 649.019 340.486 647.133Z" fill="#94A5B5"/>
<path d="M446.492 505.002C446.39 505.053 446.297 505.101 446.193 505.152C446.193 505.152 446.648 506.802 447.382 509.463C447.098 507.971 446.804 506.483 446.492 505.002Z" fill="#E0AC9B"/>
<path d="M493.979 539.151C490.583 533.414 487.24 527.637 484.017 521.796C480.919 516.18 477.922 510.486 475.049 504.747C473.987 502.622 472.958 500.475 472.078 498.264C471.179 496.001 470.741 493.625 469.959 491.349C468.289 491.229 466.987 490.398 465.166 490.674C463.34 490.952 461.377 491.603 459.596 492.131C456.554 493.032 454.63 495.143 452.776 497.606C450.7 500.367 450.726 503.67 451.02 507.036C452.388 522.657 457.396 538.638 465.671 551.906C466.449 553.152 467.268 554.372 468.143 555.549C469.038 556.754 470.066 557.96 471.074 559.203C477.373 558.647 483.535 556.541 489.157 553.55C493.446 551.268 495.62 548.238 498.042 545.037C496.017 542.198 494.075 539.312 493.979 539.151Z" fill="#E0AC9B"/>
<path d="M460.933 515.363C463.514 514.674 466.125 513.629 467.885 511.727C468.938 510.587 473.874 503.351 473.276 502.112C470.048 495.42 471.558 479.649 469.75 478.323C465.848 475.461 458.378 473.936 453.578 474.293C447.156 474.77 441.948 475.76 440.055 482.411C437.734 490.56 435.232 498.981 437.455 507.476C437.901 509.183 438.543 510.861 439.587 512.274C441.567 514.953 444.84 516.413 448.113 516.821C451.387 517.229 454.701 516.698 457.936 516.047C458.894 515.853 459.911 515.636 460.933 515.363Z" fill="#E0AC9B"/>
<path d="M530.496 591.102C529.252 586.221 527.757 581.447 526.065 576.849C522.189 566.312 517.009 556.265 510.646 547.058C504.576 538.275 497.34 529.23 488.348 523.388C484.662 520.994 480.2 519.074 475.754 520.067C469.386 521.489 463.194 528.306 459.482 533.357C455.291 539.057 454.085 545.231 455.805 552.026C457.333 558.068 459.485 563.91 461.796 569.682C466.428 581.244 471.232 592.653 472.679 605.172C473.251 610.128 473.355 615.135 473.076 620.115C472.959 622.196 472.515 623.58 474.643 624.233C476.391 624.768 478.405 624.909 480.211 625.425C482.987 626.219 485.353 628.026 487.723 629.696C493.469 633.746 499.627 637.19 506.067 639.957C511.877 642.453 518.092 644.51 522.693 648.896C524.603 650.717 526.197 652.911 528.387 654.369C528.269 654.29 530.861 646.685 531.044 646.094C536.554 628.323 535.041 608.927 530.496 591.102Z" fill="#87B4C9"/>
<path d="M522.578 646.5C514.57 639.431 506.306 632.664 498.03 625.923C489.223 618.749 481.018 611.727 473.275 603.35C463.22 592.469 452.339 582.888 440.363 574.287C435.553 570.833 437.407 572.264 432.288 569.304C427.168 566.346 421.118 564.588 415.349 565.797L400.966 578.316C399.614 588.185 403.628 598.029 408.802 606.492C414.536 615.873 421.078 622.901 427.16 632.433C434.018 643.178 441.612 653.388 450.499 662.325C455.91 667.766 461.522 673.125 468.119 676.982C477.344 682.374 488.336 684.435 498.872 683.088C509.444 681.737 519.701 676.775 524.457 667.04C526.56 662.733 528.209 657.657 529.506 652.782C528.832 652.145 528.309 651.66 528.108 651.476C526.281 649.797 524.436 648.14 522.578 646.5Z" fill="#78579C"/>
<path d="M382.322 507.068L398.921 561.507C399.117 562.149 399.768 562.526 400.412 562.37C401.117 562.197 401.532 561.456 401.318 560.753L384.719 506.313C384.523 505.671 383.872 505.295 383.228 505.451C382.523 505.623 382.108 506.364 382.322 507.068Z" fill="#110809"/>
<path d="M399.962 560.624V562.958C399.962 562.958 448.816 565.55 450.226 566.193L451.622 563.69L399.962 560.624Z" fill="#110809"/>
<path d="M440.747 576.659C440.263 573.128 437.761 571.911 434.85 570.152C430.844 567.729 424.88 565.163 420.198 564.671C414.83 564.107 408.586 568.368 404.216 571.068C386.653 581.915 371.146 595.812 356.742 610.626C349.489 618.086 341.859 625.631 335.368 633.792C333.744 635.832 318.171 657.204 317.142 656.604C324.042 660.62 333.49 661.448 340.391 665.463C344.751 661.767 350.002 657.467 354.768 654.333C361.338 650.015 367.812 645.543 374.184 640.926C387.186 631.503 399.758 621.47 411.85 610.868C417.895 605.567 423.821 600.125 429.619 594.546C434.272 590.07 441.768 584.105 440.747 576.659Z" fill="#78579C"/>
<path d="M342.753 664.275C340.712 663.392 338.483 663.125 336.42 662.291C334.386 661.469 332.418 660.521 330.334 659.819C325.981 658.353 321.525 657.236 317.096 656.043C315.28 656.756 313.624 658.544 312.135 659.604C309.385 661.562 306.588 663.495 303.486 664.833C301.024 665.895 298.419 666.564 295.825 667.227C292.578 668.06 289.331 668.891 286.085 669.723C283.675 670.341 279.524 670.46 278.407 673.194C278.032 674.112 278.156 675.173 278.428 676.13C279.238 678.992 281.362 681.413 284.017 682.5C285.93 683.283 288.025 683.39 290.076 683.487C298.894 683.904 307.71 684.414 316.538 684.551C320.964 684.618 325.394 684.591 329.818 684.423C332.179 684.333 334.539 684.204 336.895 684.032C338.124 683.942 341.676 684.356 342.434 683.217C342.852 682.59 342.877 681.783 342.889 681.026C342.961 676.065 343.034 671.105 343.106 666.144C343.115 665.523 343.11 664.925 343.091 664.34C342.983 664.343 342.87 664.326 342.753 664.275Z" fill="#AEB5BD"/>
<path d="M490.438 537.866C489.315 527.555 478.864 523.671 469.995 526.794C465.132 528.507 461.108 532.149 458.041 536.349C454.974 540.549 452.767 545.321 450.583 550.056L437.331 578.765C436.691 580.154 435.681 584.123 434.094 584.57C432.66 584.973 430.875 583.595 429.777 582.83C428.216 581.742 426.747 580.46 425.203 579.308C421.295 576.392 417.718 573.105 413.95 570.027C413.029 569.274 405.315 562.293 402.825 560.523C399.804 562.131 396.994 564.567 394.358 566.502C392.384 567.951 390.287 569.387 388.265 570.906C392.207 576.212 407.952 595.517 409.519 597.275C415.377 603.851 421.664 610.386 429.466 614.564C434.416 617.216 440.391 617.009 444.825 613.286C463.344 597.74 477.982 577.458 487.012 554.838C489.039 549.755 491.046 543.446 490.438 537.866Z" fill="#87B4C9"/>
<path d="M399.471 559.34C399.943 558.215 400.154 557.517 400.284 556.277C400.412 555.045 400.598 553.818 400.839 552.605C400.935 552.126 401.038 551.636 400.957 551.154C400.876 550.673 400.56 550.197 400.091 550.091C399.581 549.975 399.075 550.322 398.746 550.733C397.186 552.68 397.831 557.742 394.271 557.693C393.893 557.687 393.519 557.579 393.143 557.601C392.228 557.655 391.503 558.501 391.304 559.41C391.105 560.319 391.323 561.267 391.615 562.149C391.955 563.172 392.589 565.793 393.797 566.049C395.007 566.307 396.795 564.399 397.42 563.562C398.371 562.295 398.864 560.784 399.471 559.34Z" fill="#E0AC9B"/>
<path d="M478.365 496.811C480.262 493.994 482.218 491.021 482.559 487.625C483.098 482.256 479.307 477.213 474.621 474.675C469.933 472.137 464.49 471.578 459.203 471.065C456.763 466.914 451.923 464.352 447.179 464.699C445.505 464.822 443.772 465.327 442.611 466.56C441.451 467.793 441.073 469.883 442.108 471.225C439.12 471.06 436.085 472.293 434.031 474.504C432.66 475.98 431.703 477.978 431.905 479.997C432.146 482.409 434.016 484.419 436.205 485.381C438.394 486.344 440.859 486.42 443.238 486.266C449.017 485.891 454.634 484.257 460.2 482.633C457.182 483.191 455.859 487.494 457.622 490.046C459.384 492.597 463.185 493.098 465.892 491.634C463.824 495.033 463.691 499.559 465.554 503.076C467.816 507.348 474.801 512.004 479.625 510.185C486.647 507.536 485.117 498.545 478.365 496.811Z" fill="#13285E"/>
<path d="M417.01 561.615C418.45 561.755 419.886 561.896 421.306 561.896C422.419 561.963 423.53 562.029 424.642 562.097C426.735 562.223 428.829 562.349 430.922 562.475C431.827 562.529 432.744 562.583 433.632 562.397C435.671 561.972 437.175 559.704 436.862 557.583C436.581 555.678 434.971 554.132 433.465 553.121C431.659 551.907 429.523 550.868 427.309 550.847C424.772 550.823 421.987 552.264 419.703 553.25C418.164 553.914 416.615 554.601 415.274 555.617C413.932 556.631 412.797 558.015 412.379 559.661C412.272 560.082 412.226 560.571 412.489 560.915C412.775 561.29 413.305 561.341 413.771 561.362C414.852 561.407 415.932 561.512 417.01 561.615Z" fill="#E0AC9B"/>
<path d="M447.68 502.722C446.165 503.691 445.057 504.654 443.172 504.755C441.548 504.842 439.746 504.212 438.413 503.271C437.634 502.722 436.911 503.88 437.457 504.531C440.115 507.693 446.753 508.172 449.039 504.104C449.519 503.25 448.54 502.173 447.68 502.722Z" fill="#13285E"/>
<path d="M488.647 557.675C483.059 568.886 476.196 579.074 467.409 587.958C466.559 588.818 467.858 590.135 468.724 589.295C477.775 580.514 485.201 570.288 490.18 558.585C490.622 557.546 489.174 556.617 488.647 557.675Z" fill="#6498B0"/>
<path opacity="0.13" d="M255.37 363.114C248.646 364.848 240.61 368.829 241.893 374.708C243.119 380.33 251.627 381.821 258.339 382.07C305.746 383.826 353.312 385.581 400.588 382.119C406.147 381.713 411.906 381.177 416.694 378.74C421.482 376.302 425.013 371.409 423.541 366.828C421.453 360.323 411.761 358.577 403.865 358.025C354.287 354.561 304.053 350.579 255.37 363.114Z" fill="#110809"/>
<path d="M289.007 160.037C288.854 159.956 288.71 159.837 288.58 159.668C287.884 158.753 288.087 156.765 288.328 155.733C288.42 155.34 288.604 154.896 288.991 154.802C289.14 154.766 289.296 154.79 289.45 154.812C292.366 155.271 295.304 155.57 298.21 156.057C299.249 156.231 302.862 156.818 301.748 158.652C301.584 158.922 301.343 159.135 301.106 159.342C299.684 160.589 298.623 159.728 296.926 159.648C295.141 159.564 293.363 159.828 291.581 159.867C290.775 159.885 289.766 160.434 289.007 160.037Z" fill="#E0AC9B"/>
<path d="M316.001 349.04C316.166 345.351 314.794 341.654 311.998 339.236C309.89 337.412 306.186 335.568 303.368 336.53C299.37 337.895 299.939 344.57 299.432 347.912C298.775 352.238 296.404 356.271 292.965 358.907C288.545 362.295 280.567 363.599 280.247 370.53C280.162 372.369 281.085 374.307 282.725 375.089C283.494 375.455 284.357 375.555 285.206 375.59C288.965 375.743 292.612 374.891 296.087 373.533C301.132 371.562 306.178 369.591 311.223 367.62C314.029 366.525 315.033 363.927 315.223 361.046C315.451 357.582 315.679 354.119 315.907 350.655C315.941 350.118 315.976 349.58 316.001 349.04Z" fill="#111314"/>
<path d="M320.454 74.6251C320.305 76.6321 319.461 85.5736 319.476 87.3556C319.502 90.4786 325.089 104.465 328.135 104.405C331.476 104.339 336.522 90.7996 336.531 87.5776C336.543 83.1931 335.749 74.5141 335.747 74.4571C333.57 63.0376 321.065 66.3991 320.454 74.6251Z" fill="#E0AC9B"/>
<path d="M358.699 161.481H295.977V195.576H358.699V161.481Z" fill="#1E3ABA"/>
<path d="M336.016 77.697C335.869 75.816 335.748 74.478 335.748 74.4555C333.57 63.0375 321.066 66.3975 320.455 74.6235C320.396 75.4185 320.227 77.304 320.047 79.401C320.232 79.6785 320.431 79.9125 320.657 80.0895C324.886 83.715 331.365 82.863 336.016 77.697Z" fill="url(#paint0_linear_78_2404)"/>
<path d="M328.768 183.54C328.719 180.55 328.409 177.657 326.558 174.637C320.397 164.59 305.107 163.435 298.727 173.644C296.281 177.556 295.177 182.167 294.377 186.73C289.962 211.906 291.965 238.879 292.243 264.354C292.375 278.685 292.529 293.02 293.131 307.341C293.273 310.71 295.307 348.571 295.986 348.58C303.078 348.669 310.173 348.403 317.268 348.22C317.307 346.735 317.236 345.108 317.324 343.348C317.985 330.345 318.819 317.35 319.825 304.369C321.838 278.407 324.539 252.501 327.926 226.687C328.976 218.694 330.103 210.673 330.275 202.597C330.416 196.065 328.871 189.913 328.768 183.54Z" fill="#78579C"/>
<path d="M340.001 347.576C339.947 346.602 339.892 345.629 339.837 344.655C339.69 342.02 339.659 339.048 341.467 337.154C342.174 336.414 343.101 335.922 344.068 335.609C346.921 334.683 350.183 335.477 352.493 337.361C355.195 339.564 354.475 343.592 355.142 346.679C355.911 350.232 357.422 353.684 359.976 356.288C363.756 360.144 369.422 361.845 372.671 366.173C373.44 367.196 374.063 368.4 374.086 369.687C374.212 376.989 363.447 373.412 359.964 372.051C355.657 370.368 351.35 368.687 347.043 367.004C343.39 365.577 340.934 364.268 340.69 359.9C340.46 355.791 340.23 351.684 340.001 347.576Z" fill="#111314"/>
<path d="M327.33 189.024C327.673 215.761 328.651 242.491 330.261 269.181C331.536 290.335 333.208 311.464 335.276 332.553C335.752 337.401 335.546 343.216 336.782 347.973C343.434 347.185 350.19 346.968 356.86 347.323C357.642 347.259 358.426 347.206 359.21 347.164C362.954 299.739 364.703 252.204 363.955 204.621C363.711 189.169 362.709 172.332 352.616 160.776C346.641 153.934 337.638 159.097 332.631 164.392C330.129 167.037 327.235 170.713 326.556 174.436C326.14 176.713 326.352 179.346 326.659 181.989C326.94 184.413 327.301 186.847 327.33 189.024Z" fill="#69418C"/>
<path d="M356.594 97.4309C356.135 95.3684 357.887 90.9149 354.593 88.2239C346.115 85.6544 342.491 84.4139 335.285 83.1614C335.245 86.5454 330.919 90.7484 328.913 92.5064C328.326 93.0224 327.507 93.0254 326.915 92.5169C324.866 90.7589 320.376 86.5214 320.336 83.1284C313.132 84.3824 309.25 85.4039 300.772 87.9734C297.478 90.6644 300.878 95.3834 300.419 97.4459C299.048 103.608 299.832 178.135 299.832 178.135H355.791C355.791 178.135 357.966 103.591 356.594 97.4309Z" fill="white"/>
<path d="M336.964 51.0736C334.829 49.8826 330.75 51.1906 328.305 51.0736C325.861 51.1906 322.087 51.1486 320.128 52.6171C315.981 55.7266 315.526 62.3206 316.961 67.2526C317.202 68.0791 317.697 70.1296 317.962 70.9486C319.427 75.5071 321.903 76.7431 323.281 77.8201C326.534 80.3626 330.893 80.6236 334.218 78.0211C336.128 76.5271 337.193 74.1946 338.066 71.9116C339.619 67.8541 340.648 64.0606 340.332 59.6821C340.136 56.9716 339.626 52.5601 336.964 51.0736Z" fill="#E0AC9B"/>
<path d="M364.023 187.852C364.028 187.842 364.032 187.831 364.037 187.821C366.751 177.915 368.249 167.716 368.801 157.458C369.234 149.433 369.3 141.315 369.113 133.246C368.671 127.579 368.031 121.927 367.13 116.322C366.478 112.264 365.833 108.124 364.739 104.148C364.487 102.441 364.233 100.732 363.927 99.0329C363.493 96.6209 363.209 94.0094 361.49 92.3174C359.653 87.9044 357.297 87.3554 351.824 86.0834C347.671 85.1204 343.347 83.9579 339.113 83.5859C336.85 101.577 334.962 119.62 333.733 137.713C333.532 140.676 333.348 143.638 333.184 146.602C332.598 157.146 332.248 167.704 332.192 178.266C332.18 180.493 332.022 182.836 332.003 185.077C342.614 186.826 353.302 187.761 364.023 187.852Z" fill="#13285E"/>
<path d="M290.384 130.722C291.017 137.782 292.16 144.796 293.823 151.683C294.625 154.999 295.445 158.536 296.601 161.922C296.595 162.021 296.586 162.121 296.58 162.222C296.431 162.165 296.257 162.177 296.127 162.307C292.908 165.505 292.82 169.666 292.991 174.042C292.998 174.219 293.054 174.358 293.13 174.48C292.533 178.857 292.49 183.364 292.492 187.497C296.486 187.611 300.479 187.699 304.474 187.627C310.977 187.51 318.016 188.05 324.322 186.046C324.661 181.405 324.57 176.673 324.624 172.021C324.741 161.971 324.757 151.971 324.437 141.921C324.118 131.944 324.486 121.821 323.464 111.889C323.457 111.816 323.445 111.742 323.438 111.667C323.209 110.067 322.954 108.465 322.647 106.858C321.768 102.277 320.88 97.6965 319.928 93.132C319.425 91.284 318.875 89.448 318.288 87.6255C317.752 86.523 317.048 85.5 316.043 84.594C315.983 84.54 315.913 84.513 315.844 84.4965C313.683 82.95 310.365 84.735 306.334 85.6365C303.389 86.295 298.539 86.6655 296.031 88.518C290.132 92.874 289.683 99.861 290.344 106.653C290.321 106.99 290.296 107.323 290.269 107.65C289.651 115.332 289.696 123.045 290.384 130.722Z" fill="#13285E"/>
<path d="M388.414 140.498C388.393 140.448 388.362 140.408 388.342 140.36C386.309 134.075 381.251 120.503 377.915 113.766C372.588 103.005 368.224 91.4491 359.962 88.4686C359.598 88.3231 359.22 88.2076 358.839 88.1101C358.795 88.0996 358.755 88.0801 358.711 88.0696L358.706 88.0801C357.047 87.6781 355.264 87.7141 353.527 88.2991C348.553 89.9761 345.856 95.4331 347.507 100.488C348.146 102.446 349.346 104.051 350.861 105.191L350.828 105.264L375.303 147.407C375.359 147.497 375.403 147.594 375.462 147.681L375.491 147.732C375.491 147.732 375.496 147.728 375.499 147.726C377.455 150.558 381.139 151.74 384.412 150.359C388.195 148.758 389.987 144.344 388.414 140.498Z" fill="#13285E"/>
<path d="M289.252 154.868C291.041 155.537 292.525 156.902 293.939 158.226C297.956 161.99 302.38 165.138 307.28 167.642C308.325 168.176 307.324 170.229 306.277 169.693C303.46 168.255 300.765 166.611 298.207 164.751C298.02 165.029 297.828 165.305 297.632 165.576C300.756 168.828 304.312 171.471 308.325 173.469C309.376 173.993 308.377 176.046 307.322 175.521C303.172 173.456 299.462 170.736 296.225 167.37C296.043 167.585 295.862 167.799 295.676 168.009C298.308 171.402 301.522 174.071 305.291 175.992C306.336 176.526 305.336 178.58 304.287 178.044C300.163 175.94 297.294 172.952 294.125 169.667C293.267 170.327 293.328 170.754 293.822 171.75C294.796 173.708 296.65 175.539 298.761 176.16C299.5 176.378 300.387 176.292 300.334 177.335C300.3 178.005 299.593 178.805 298.894 178.538C297.052 177.833 295.686 177.132 294.283 175.672C292.216 173.52 290.178 171.34 288.167 169.134C287.162 168.03 286.165 166.92 285.174 165.804C284.384 164.915 283.236 163.971 282.666 162.932C281.893 161.523 282.219 159.755 282.796 158.252C283.677 155.963 286.145 153.978 288.674 154.677C288.872 154.734 289.063 154.797 289.252 154.868Z" fill="#E0AC9B"/>
<path d="M281.922 146.628C278.849 143.288 275.921 139.815 273.116 136.239C271.351 134.099 269.663 131.907 268.148 129.585C267.508 128.682 266.84 127.8 266.216 126.885C264.78 124.778 263.155 122.525 260.566 121.956C258.188 121.434 255.661 122.198 253.804 123.753C250.647 126.396 250.963 131.903 252.387 135.413C252.435 135.53 252.483 135.647 252.534 135.762C253.734 138.536 255.661 140.928 257.66 143.184C265.779 152.357 275.54 160.01 286.302 165.716C287.664 162.729 289.534 160.101 291.065 157.226C291.081 157.194 291.088 157.169 291.103 157.139C287.997 153.677 284.944 150.168 281.922 146.628Z" fill="#E0AC9B"/>
<path d="M306.451 84.4321C302.511 85.2121 298.649 85.8826 294.883 87.3901C288.812 89.8201 283.901 93.8206 278.799 97.8391C273.792 101.783 269.038 106.038 264.194 110.231C259.535 114.261 245.336 123.785 251.07 131.633C251.689 132.479 253.4 132.02 252.927 130.836C252.843 130.628 252.808 130.421 252.746 130.212C254.971 130.479 257.197 130.74 259.435 130.865C262.393 131.028 265.249 131.021 268.053 131.85C267.835 132.155 267.616 132.459 267.419 132.776C266.816 133.743 268.099 134.516 268.862 133.907C273.137 130.497 276.878 126.933 281.662 124.151C286.14 121.545 290.801 119.273 295.241 116.595C299.213 114.2 306.351 109.763 309.045 104.468C311.796 100.595 312.841 95.5741 310.652 90.9136C309.429 88.3096 317.331 83.8486 318.804 87.1966C319.028 87.7066 319.659 87.3646 319.713 86.9461C320.444 81.4006 309.204 83.8861 306.451 84.4321Z" fill="#13285E"/>
<path d="M342.692 52.2585C342.68 50.6145 342.493 48.981 342.032 47.385C341.845 46.734 341.607 46.08 341.167 45.57C340.344 44.616 338.995 44.364 337.749 44.2785C336.503 44.193 335.192 44.2005 334.1 43.584C333.009 42.969 332.322 41.8305 331.426 40.9485C330.674 40.209 329.762 39.639 328.772 39.294C328.105 39.0615 327.383 38.9295 326.691 39.0705C325.874 39.237 325.179 39.759 324.514 40.269C320.356 43.4505 315.032 46.644 315.032 52.6695C314.804 55.9245 315.641 59.1585 316.661 62.253C316.763 62.5635 316.884 62.895 317.153 63.0765C317.501 63.3105 317.996 63.1965 318.304 62.91C319.197 62.082 319.092 60.4665 319.232 59.3445C319.386 58.1175 319.579 56.877 319.972 55.7025C320.767 53.325 322.457 51.7815 325.029 52.536C326.096 52.8495 326.906 53.7195 327.874 54.273C329.439 55.167 331.461 55.17 333.027 54.2805C334.124 53.658 335.122 52.602 336.375 52.6815C337.38 52.746 338.209 53.577 338.593 54.5235C338.975 55.47 338.999 56.52 339.015 57.543C339.029 58.308 338.58 65.0625 340.766 63.3285C341.232 62.9595 341.381 62.3205 341.493 61.731C342.081 58.653 342.714 55.434 342.692 52.2585Z" fill="#87B4C9"/>
<path d="M317.42 63.6435C317.42 64.845 316.883 65.82 316.22 65.82C315.557 65.82 315.02 64.845 315.02 63.6435C315.02 62.442 315.557 61.467 316.22 61.467C316.883 61.467 317.42 62.442 317.42 63.6435Z" fill="#E0AC9B"/>
<path d="M341.57 63.6435C341.57 64.845 341.033 65.82 340.37 65.82C339.708 65.82 339.17 64.845 339.17 63.6435C339.17 62.442 339.708 61.467 340.37 61.467C341.033 61.467 341.57 62.442 341.57 63.6435Z" fill="#E0AC9B"/>
<path d="M329.151 70.9019C329.395 70.8284 329.635 70.7399 329.869 70.6199C330.338 70.3754 330.925 70.1864 331.371 70.4759C332.903 71.4689 328.506 75.9989 326.871 72.9119C326.787 72.7544 326.726 72.5804 326.726 72.4004C326.725 71.9954 327.03 71.6429 327.386 71.4614C327.942 71.1734 328.556 71.0804 329.151 70.9019Z" fill="#110809"/>
<path d="M384.469 135.891C382.348 134.432 379.872 133.481 377.328 133.178C376.075 133.028 374.388 132.923 373.226 133.538C372.289 134.033 372.292 134.634 372.079 135.614C371.443 138.549 371.149 141.563 370.447 144.48C370.063 146.073 369.648 147.249 368.667 148.496C367.684 149.745 367.133 151.272 367.16 152.88C367.194 154.952 368.132 156.953 369.549 158.441C373.7 162.8 380.649 162.12 385.266 158.933C390.489 155.327 392.206 147.453 389.52 141.749C388.398 139.37 386.616 137.369 384.469 135.891Z" fill="#87B4C9"/>
<path d="M382.241 139.373C382.894 140.321 383.512 141.297 383.902 142.38C384.662 144.492 384.482 146.877 383.704 148.982C381.93 153.776 377.776 157.742 372.516 155.684C366.562 153.354 362.131 145.751 359.48 140.262C356.113 133.289 353.335 126.029 349.691 119.193C348.472 116.906 347.158 114.665 345.695 112.529C344.614 110.948 341.322 108.243 340.9 106.499C340.527 104.957 341.842 103.929 342.538 102.738C343.279 101.472 343.889 100.128 344.354 98.7331C344.504 98.2816 344.646 97.8121 344.94 97.4386C345.232 97.0651 345.721 96.8056 346.174 96.9346C346.394 96.9976 346.58 97.1431 346.755 97.2916C350.194 100.187 351.537 104.856 353.943 108.68C356.782 113.19 360.68 116.481 364.233 120.348C369.002 125.54 374.364 130.119 379.224 135.219C380.244 136.289 380.993 137.585 381.843 138.801C381.977 138.99 382.11 139.181 382.241 139.373Z" fill="#E0AC9B"/>
<path d="M318.556 98.2006H340.683C342.093 98.2006 343.237 97.0396 343.237 95.6071V63.6121C343.237 62.1796 342.094 61.0186 340.683 61.0186H318.556C317.147 61.0186 316.004 62.1796 316.004 63.6121V95.6056C316.003 97.0396 317.147 98.2006 318.556 98.2006Z" fill="#110809"/>
<path d="M333.3 87.7201C336.97 88.5496 340.27 89.5081 343.562 92.1931C345.609 93.8611 343.643 95.3851 342.266 94.4461C339.311 92.4271 336.092 91.0216 332.617 90.2356C331.007 89.8711 331.689 87.3556 333.3 87.7201Z" fill="#E0AC9B"/>
<path d="M330.635 90.2611C334.834 91.3411 338.754 93.2206 342.645 95.1136C344.134 95.8381 342.834 98.0881 341.349 97.3651C337.652 95.5666 333.942 93.8011 329.953 92.7766C328.353 92.3656 329.03 89.8486 330.635 90.2611Z" fill="#E0AC9B"/>
<path d="M330.803 93.8597C331.594 93.6752 332.424 94.0232 333.18 94.2497C334.133 94.5362 335.073 94.8692 335.994 95.2472C337.805 95.9897 339.538 96.8762 341.199 97.9187C342.602 98.7992 341.314 101.057 339.903 100.172C338.518 99.3032 337.082 98.5187 335.581 97.8782C334.856 97.5692 334.118 97.2932 333.371 97.0427C332.756 96.8372 332.114 96.4607 331.484 96.3587C330.768 96.2432 330.115 96.2612 329.925 95.4302C329.77 94.7537 330.105 94.0232 330.803 93.8597Z" fill="#E0AC9B"/>
<path d="M332.509 97.4551C335.311 98.3206 337.66 99.5521 340.155 101.084C341.567 101.951 340.279 104.207 338.859 103.337C336.558 101.925 334.41 100.769 331.827 99.9706C330.251 99.4831 330.922 96.9646 332.509 97.4551Z" fill="#E0AC9B"/>
<path d="M337.551 100.784C337.496 100.872 337.445 100.962 337.397 101.055C337.03 101.78 337.518 102.632 337.995 103.289C339.014 104.693 340.066 106.071 341.148 107.424C341.982 108.467 342.895 109.539 344.141 109.986C345.678 110.537 347.412 110.004 348.768 109.089C350.507 107.915 351.292 105.488 350.873 103.428C350.597 102.074 349.92 100.844 349.23 99.651C347.836 97.2405 346.256 94.3291 344.051 92.5756C342.144 91.0591 341.199 94.0891 340.571 95.4886C340.098 96.5416 339.648 97.6065 339.118 98.631C338.707 99.432 338.005 100.05 337.551 100.784Z" fill="#E0AC9B"/>
<path d="M329.595 69.6481C330.106 69.6481 330.521 69.227 330.521 68.7076C330.521 68.1882 330.106 67.7671 329.595 67.7671C329.084 67.7671 328.67 68.1882 328.67 68.7076C328.67 69.227 329.084 69.6481 329.595 69.6481Z" fill="#FFF5F5"/>
<path d="M315.929 34.4055C312.265 34.8255 309.457 37.2345 308.249 40.776C307.919 41.745 309.315 42.2565 309.823 41.4495L309.941 41.262C310.006 41.16 310.035 41.0295 310.04 40.9005C310.993 38.199 313.328 36.0765 316.05 35.304C316.521 35.1705 316.45 34.3455 315.929 34.4055Z" fill="#87B4C9"/>
<path d="M316.574 27.4649C314.055 26.0549 309.342 29.5529 307.51 31.1684C304.335 33.9674 302.31 37.7639 301.501 41.9309C301.258 43.1909 302.884 43.5914 303.352 42.4499C303.467 42.1679 303.584 41.8859 303.699 41.6039C303.788 41.3864 303.727 41.2049 303.599 41.0744C304.317 37.8314 305.96 34.9379 308.378 32.6264C309.765 31.2989 311.346 30.2429 313.097 29.4839C314.28 28.9709 315.73 28.9244 316.638 27.9734C316.778 27.8264 316.757 27.5669 316.574 27.4649Z" fill="#87B4C9"/>
<path d="M315.741 18C309.772 18.0675 303.678 23.4765 300.257 28.02C298.282 30.642 296.726 33.6045 295.742 36.7545C295.268 38.268 293.714 42.168 295.159 43.5255C295.601 43.9425 296.164 43.8015 296.503 43.35L296.655 43.146C296.844 42.8955 296.757 42.45 296.542 42.2445C296.522 42.2265 296.502 42.207 296.483 42.189C296.853 41.841 296.967 41.259 296.75 40.374C296.88 39.6705 297.039 38.973 297.226 38.283C297.581 36.984 298.032 35.7075 298.58 34.4805C299.712 31.947 301.246 29.58 303.073 27.51C304.902 25.437 307.036 23.625 309.386 22.194C311.502 20.9055 313.885 20.241 316.011 19.008C316.466 18.7425 316.268 17.994 315.741 18Z" fill="#87B4C9"/>
<path d="M426.767 332.316C425.01 332.118 423.373 333.191 421.989 334.307C417.787 337.695 414.271 341.958 411.72 346.754C416.322 336.65 421.01 326.192 421.319 315.062C421.354 313.797 421.299 312.431 420.536 311.432C418.671 308.99 414.79 310.797 412.696 313.04C408.483 317.546 405.68 323.391 404.783 329.538C405.285 315.497 404.616 301.413 402.787 287.487C402.302 283.79 400.774 279.219 396.083 281.376C392.68 282.942 390.915 286.797 390.017 290.481C388.476 296.804 388.655 303.41 388.841 309.921C388.979 314.711 389.475 319.67 389.21 324.441C387.276 322.889 386.444 318.999 383.824 318.339C381.844 317.84 379.625 320.078 378.935 321.696C378.069 323.73 378.199 326.048 378.476 328.247C380.097 341.093 386.885 358.47 395.773 368.975C398.035 369.086 400.296 369.189 402.554 369.311C404.597 369.183 406.646 369.111 408.688 369.11C410.715 367.068 412.581 364.683 414.108 363.032C419.37 357.342 424.079 351.12 428.13 344.484C429.403 342.399 430.647 340.152 430.696 337.7C430.743 335.247 429.165 332.588 426.767 332.316Z" fill="#87C98B"/>
<path d="M396.537 359.52C398.839 362.825 401.229 366.066 403.686 369.254C407.404 369.054 411.134 369.021 414.801 369.377C417.949 366.122 420.567 362.339 422.669 358.299C423.382 356.93 424.048 355.493 424.197 353.951C424.346 352.409 423.888 350.726 422.693 349.766C418.203 346.157 413.605 355.464 411.267 357.629C410.799 355.877 412.324 353.48 412.944 351.855C415.245 345.825 417.573 339.201 415.62 333.045C415.174 331.641 414.322 330.152 412.898 329.87C409.549 329.207 406.596 335.385 405.647 337.833C403.996 342.086 403.489 346.806 404.296 351.311C402.681 348.527 396.109 338.25 392.284 342.702C391.284 343.866 391.034 345.519 391.105 347.063C391.219 349.556 392.035 351.899 393.176 354.122C394.137 356.001 395.335 357.795 396.537 359.52Z" fill="#73AB76"/>
<path d="M249.704 134.389C249.726 134.83 250.083 135.177 250.519 135.177C253.58 135.172 256.642 135.076 259.716 135.151C263.98 135.256 268.201 135.606 272.45 135.627C272.847 135.628 273.194 135.34 273.27 134.944C273.556 133.431 273.789 131.907 274.015 130.38C274.08 129.94 273.792 129.526 273.363 129.441C269.758 128.722 266.152 128.008 262.546 127.296C258.38 126.472 254.082 125.307 249.825 124.902C249.316 124.854 248.88 125.302 248.938 125.82C249.11 127.365 249.388 128.914 249.479 130.359C249.564 131.701 249.636 133.045 249.704 134.389Z" fill="#87B4C9"/>
<path opacity="0.13" d="M178.831 633.99C178.536 633.908 178.235 633.846 177.945 633.798C169.392 632.372 161.047 632.883 152.507 633.599C149.702 633.834 146.864 634.199 144.297 635.324C141.242 636.663 147.642 639.545 148.759 639.744C158.065 641.406 168.434 639.978 177.603 638.114C178.375 637.956 179.168 637.782 179.813 637.361C180.458 636.939 180.926 636.207 180.766 635.495C180.585 634.685 179.74 634.242 178.831 633.99Z" fill="#110809"/>
<path d="M182.629 615.198C182.705 614.879 182.756 614.556 182.769 614.228C182.973 609.068 175.745 610.551 173.959 613.943C177.266 607.662 179.939 601.062 181.919 594.29C182.384 592.695 184.388 585.207 182.102 584.502C181.781 584.403 181.426 584.498 181.101 584.618C177.913 585.786 175.942 589.109 174.564 592.277C172.258 597.572 170.772 603.195 170.182 608.862C170.952 597.947 170.111 582.699 164.058 573.609C162.542 571.332 159.395 570.843 157.699 573.518C155.572 576.872 154.707 580.872 154.602 584.76C154.499 588.648 155.112 592.472 155.723 596.268C154.512 592.94 153.19 589.451 150.45 587.31C147.209 584.778 143.885 586.923 143.154 590.91C142.781 592.943 143.149 594.993 143.619 596.954C145.916 606.501 150.176 615.606 153.87 624.575C152.88 623.502 151.891 622.43 150.901 621.359C150.378 620.793 149.845 620.219 149.169 619.854C148.493 619.49 147.637 619.364 146.915 619.721C145.994 620.177 145.525 621.312 145.569 622.329C145.613 623.345 146.071 624.266 146.554 625.131C149.165 629.811 152.909 633.242 156.695 636.842C156.738 636.882 156.776 636.912 156.818 636.95C160.685 636.717 164.559 636.147 168.434 635.687C169.117 635.606 171.043 632.895 171.573 632.301C172.862 630.857 174.043 629.285 175.191 627.728C177.5 624.597 179.598 621.312 181.464 617.903C181.936 617.036 182.403 616.136 182.629 615.198Z" fill="#87C98B"/>
<path d="M235.003 141.057C205.383 162.825 180.948 191.652 163.702 224.378C146.622 256.79 136.55 293.118 135.475 329.919C134.872 350.591 137.13 371.345 142.38 391.334" stroke="#138BC3" stroke-miterlimit="10" stroke-dasharray="12 12"/>
<path d="M583.353 217.092C572.243 183.781 552.674 153.481 527.149 130.005C503.426 108.184 474.605 92.508 443.967 84.4065C425.618 79.554 406.655 77.4525 387.8 78.2415" stroke="#138BC3" stroke-miterlimit="10" stroke-dasharray="12 12"/>
<path d="M487.532 493.772C553.883 454.992 589.237 379.805 594.378 301.685" stroke="#138BC3" stroke-miterlimit="10" stroke-dasharray="12 12"/>
<path d="M187.771 443.792C203.439 467.66 224.181 488.249 248.348 503.801C273.279 519.845 301.67 530.349 331.053 534.563C346.766 536.816 362.719 537.287 378.505 535.92" stroke="#138BC3" stroke-miterlimit="10" stroke-dasharray="12 12"/>
<defs>
<linearGradient id="paint0_linear_78_2404" x1="328.032" y1="59.4278" x2="328.032" y2="86.0037" gradientUnits="userSpaceOnUse">
<stop offset="4e-07" stop-color="#BA7461"/>
<stop offset="1" stop-color="#E0AC9B"/>
</linearGradient>
</defs>
</svg>
