<svg width="737" height="750" viewBox="0 0 737 750" fill="none" xmlns="http://www.w3.org/2000/svg">
<path d="M365.736 676.703H69.9867C69.9867 676.703 -25.7186 195.318 219.148 95.2066C413.607 15.7036 370.196 201.038 577.856 265.608C831.315 344.42 644.443 674.573 644.443 674.573L365.736 676.703Z" fill="#F8D8D8"/>
<path d="M501.125 109.345C522.723 120.4 568.392 151.299 559.51 176.394C551.569 201.339 509.653 172.743 494.646 160.636C483.078 151.365 456.871 116.398 487.895 123.051C503.879 126.303 531.987 156.616 535.063 171.591C547.371 231.487 451.025 166.623 462.674 155.584C479.048 139.443 545.838 222.549 491.934 211.329C478.143 208.695 447.206 180.28 474.149 188.068C496.39 195.154 495.655 222.334 476.198 224.953" stroke="#FC6A5A" stroke-width="1.8857" stroke-miterlimit="10"/>
<path d="M361.148 238.453C361.148 238.453 357.052 289.315 381.632 296.82C406.213 304.324 492.819 386.199 514.367 366.025C555.334 327.67 557.793 323.502 540.587 305.992C527.35 292.522 393.924 251.794 393.924 251.794C393.924 251.794 381.634 220.11 362.789 220.11C343.942 220.11 361.148 238.453 361.148 238.453Z" fill="#965450"/>
<path d="M384.223 234.265C378.873 226.945 371.538 220.11 362.786 220.11C343.941 220.11 361.147 238.453 361.147 238.453C361.147 238.453 357.485 284.103 378.018 295.273C380.267 274.956 382.402 254.626 384.223 234.265Z" fill="#76413B"/>
<path d="M319.361 396.043C319.361 396.043 484.871 295.153 502.896 300.99C534.254 311.143 540.587 341.013 540.587 341.013C540.587 341.013 496.342 399.379 412.769 444.405C329.193 489.429 319.361 396.043 319.361 396.043Z" fill="#965450"/>
<path d="M404.971 345.99C361.12 370.588 319.361 396.043 319.361 396.043C319.361 396.043 329.194 489.429 412.767 444.404C428.381 435.992 442.619 427.114 455.456 418.239C440.029 393.225 422.3 369.534 404.971 345.99Z" fill="#76413B"/>
<path d="M325.916 371.862C325.916 371.862 383.271 345.18 398.018 341.011C398.018 341.011 430.793 418.555 434.889 451.908C434.889 451.908 384.908 487.761 346.399 504.438C307.889 521.115 325.916 371.862 325.916 371.862Z" fill="#6F96BD"/>
<path d="M323.383 399.09C320.279 441.306 318.46 516.535 346.398 504.438C363.884 496.866 383.724 485.343 400.188 475.015C382.964 448.231 364.847 422.071 343.599 398.527C336.817 398.032 330.086 398.352 323.383 399.09Z" fill="#4F7DA3"/>
<path d="M238.246 315.163C238.246 315.163 243.162 361.023 219.401 375.198C195.64 389.373 148.117 363.525 135.826 429.394C123.536 495.265 334.928 392.707 334.928 392.707L309.528 311.829L238.246 315.163Z" fill="#965450"/>
<path d="M247.257 315.193C247.153 328.809 245.188 342.951 247.434 356.47C249.499 368.904 255.196 379.258 262.472 389.298C269.28 398.694 277.107 407.443 286.033 414.586C314.164 402.781 334.93 392.709 334.93 392.709L309.53 311.83L247.173 314.748C247.209 314.889 247.259 315.024 247.257 315.193Z" fill="#76413B"/>
<path d="M211.206 376.032C211.206 376.032 262.826 424.392 318.542 401.463L361.967 366.861C361.967 366.861 371.27 490.083 391.463 622.005C407.986 729.936 187.446 627.841 187.446 627.841C187.446 627.841 114.524 452.743 135.826 410.218C157.128 367.693 211.206 376.032 211.206 376.032Z" fill="#6F96BD"/>
<path d="M389.369 608.806C384.888 608.638 380.41 608.355 375.936 607.893C338.245 604.002 302.619 587.289 272.224 564.657C241.351 541.668 216.504 511.71 194.354 480.181C175.696 453.622 159.109 425.547 145.882 395.824C142.089 399.822 138.661 404.557 135.825 410.218C114.521 452.742 187.444 627.841 187.444 627.841C187.444 627.841 403.961 715.605 391.462 622.005C390.872 617.574 390.053 613.194 389.369 608.806Z" fill="#4F7DA3"/>
<path d="M203.013 500.268C203.013 500.268 207.929 573.642 204.652 596.155C204.652 596.155 354.72 621.655 385.855 631.66C416.99 641.667 426.092 670.561 426.092 670.561C426.092 670.561 191.541 680.37 146.477 668.697C101.413 657.024 112.065 486.928 112.065 486.928L203.013 500.268Z" fill="#965450"/>
<path d="M205.253 545.025C204.452 521.745 203.013 500.268 203.013 500.268L112.066 486.927C112.066 486.927 110.791 507.301 110.991 534.426C140.061 546.084 173.331 548.185 205.253 545.025Z" fill="#76413B"/>
<path d="M166.962 382.702C166.962 382.702 94.8596 394.375 101.414 518.613C101.414 518.613 166.962 541.959 220.22 525.283C220.22 525.283 224.317 381.034 166.962 382.702Z" fill="#6F96BD"/>
<path d="M320.181 195.93C320.181 195.93 389.826 195.096 377.536 255.964C365.246 316.831 368.524 365.193 353.775 378.534C339.026 391.875 252.995 396.877 250.538 312.663C248.081 228.448 262.827 193.428 320.181 195.93Z" fill="#965450"/>
<path d="M251.356 289.315C251.356 289.315 256.272 260.965 233.33 261.799C210.389 262.633 228.414 328.503 246.44 319.332C264.466 310.161 251.356 289.315 251.356 289.315Z" fill="#965450"/>
<path d="M222.268 280.144C222.268 280.144 222.268 267.637 232.1 263.469C238.517 260.748 247.504 266.595 249.306 275.559C252.992 293.902 226.364 366.444 274.706 392.292L274.296 388.54C274.296 388.54 288.635 402.298 318.541 401.464L319.36 396.045L321 402.298C321 402.298 358.28 401.464 362.376 376.867L360.327 386.455C360.327 386.455 368.931 383.536 370.569 364.776C372.208 346.015 368.11 327.255 368.11 327.255C368.11 327.255 360.326 366.861 354.59 365.61C348.855 364.359 359.096 324.753 349.265 322.669C339.433 320.584 283.718 308.911 283.718 329.757C283.718 329.757 293.959 363.109 280.849 361.024C267.739 358.939 260.775 353.52 262.414 317.667C264.053 281.814 270.198 245.542 270.198 245.542C270.198 245.542 289.863 248.877 291.91 218.86C291.91 218.86 319.769 255.13 362.375 250.962C362.375 250.962 333.698 246.793 320.588 233.452C320.588 233.452 373.437 264.72 416.863 230.118L402.523 230.952C402.523 230.952 422.188 223.03 418.91 193.848C418.91 193.848 412.765 208.44 403.751 211.357C403.751 211.357 416.861 202.185 413.583 185.509C413.583 185.509 401.702 202.185 389.822 205.104C389.822 205.104 411.126 203.019 407.438 172.585L392.689 181.341C392.689 181.341 402.521 175.921 402.521 165.498C402.521 165.498 375.891 179.673 354.179 172.585C332.466 165.498 277.979 141.318 262.822 189.678C262.822 189.678 243.158 177.171 223.493 197.599C203.833 218.025 222.268 280.144 222.268 280.144Z" fill="#352C38"/>
<path d="M214.895 198.849C218.128 195.492 221.846 192.612 225.836 190.182C226.837 189.577 227.857 189.006 228.893 188.458C229.937 187.929 230.991 187.414 232.071 186.954C233.151 186.498 234.242 186.052 235.365 185.694C236.477 185.302 237.624 185.016 238.77 184.735L240.508 184.374L242.268 184.117C243.446 183.994 244.634 183.862 245.826 183.88C247.019 183.835 248.211 183.946 249.405 184.029C250.589 184.206 251.781 184.356 252.943 184.668C254.124 184.902 255.25 185.334 256.396 185.697C257.499 186.172 258.641 186.577 259.691 187.17C260.779 187.692 261.802 188.326 262.816 188.976C263.845 189.604 264.77 190.377 265.748 191.08L263.603 192.741C262.425 189.708 262.035 186.723 262.026 183.624C261.999 180.541 262.661 177.474 263.722 174.598L264.593 172.464C264.94 171.783 265.342 171.132 265.717 170.466C266.415 169.092 267.397 167.932 268.312 166.722C270.22 164.379 272.41 162.292 274.786 160.515C275.379 160.069 275.933 159.555 276.559 159.166L278.433 157.989C279.693 157.227 280.902 156.349 282.246 155.769L286.192 153.841L286.686 153.601C286.973 153.471 287.053 153.454 287.246 153.375L288.245 152.989C288.926 152.743 289.542 152.452 290.278 152.242C293.192 151.302 296.078 150.724 299.033 150.426C301.98 150.195 304.946 150.19 307.86 150.537C310.769 150.874 313.655 151.377 316.463 152.118C319.279 152.83 322.05 153.676 324.759 154.654C330.195 156.57 335.468 158.79 340.774 160.81C343.427 161.823 346.097 162.769 348.809 163.525C351.517 164.286 354.261 164.932 357.053 165.175C359.839 165.409 362.666 165.258 365.384 164.539C368.096 163.818 370.695 162.586 373.03 160.911C370.836 162.757 368.329 164.289 365.567 165.18C362.816 166.096 359.889 166.44 356.988 166.375C351.167 166.192 345.529 164.593 340.096 162.796C334.635 161.02 329.327 158.91 323.928 157.227C321.233 156.367 318.529 155.59 315.802 154.956C313.079 154.293 310.324 153.873 307.572 153.607C304.816 153.333 302.061 153.411 299.333 153.624C296.618 153.912 293.898 154.492 291.38 155.313C290.742 155.491 290.06 155.812 289.401 156.055L288.404 156.447C288.267 156.504 288.005 156.597 287.973 156.624L287.504 156.856L283.757 158.718C282.474 159.285 281.35 160.102 280.156 160.809L278.386 161.902C277.792 162.262 277.287 162.736 276.733 163.146C274.51 164.782 272.501 166.681 270.767 168.783C269.941 169.866 269.038 170.901 268.423 172.116C268.088 172.705 267.721 173.28 267.409 173.88L266.613 175.749C265.633 178.263 264.988 180.945 264.965 183.673C264.897 186.355 265.271 189.225 266.147 191.611L267.796 196.102L264.002 193.273C263.109 192.607 262.276 191.847 261.342 191.241C260.423 190.611 259.496 189.991 258.51 189.481C257.558 188.899 256.523 188.502 255.521 188.025C254.477 187.662 253.453 187.224 252.372 186.976C251.311 186.649 250.215 186.486 249.125 186.276C248.024 186.153 246.922 185.997 245.806 185.989C244.693 185.92 243.576 185.997 242.46 186.061L240.787 186.228L239.123 186.498C238.019 186.712 236.913 186.946 235.825 187.26C234.727 187.536 233.651 187.9 232.578 188.277C231.505 188.656 230.451 189.093 229.402 189.546C228.36 190.017 227.328 190.513 226.311 191.046C224.281 192.115 222.306 193.309 220.406 194.62C218.501 195.928 216.629 197.301 214.895 198.849Z" fill="#352C38"/>
<path d="M210.797 170.916C213.562 170.62 216.348 170.553 219.131 170.586C221.914 170.626 224.703 170.755 227.475 171.082C228.861 171.243 230.246 171.421 231.625 171.654C233.006 171.865 234.378 172.138 235.746 172.434C237.117 172.723 238.473 173.079 239.827 173.442C241.172 173.844 242.522 174.237 243.835 174.745C245.163 175.207 246.457 175.777 247.746 176.349L249.659 177.261L251.524 178.276C252.154 178.597 252.735 179.011 253.344 179.374C253.954 179.737 254.545 180.132 255.116 180.558C256.296 181.354 257.383 182.28 258.484 183.19C259.52 184.176 260.584 185.134 261.511 186.235C262.508 187.269 263.314 188.473 264.162 189.631C264.927 190.851 265.709 192.061 266.321 193.369C267.027 194.629 267.482 196.005 268.046 197.328L266.691 198.007C264.773 194.745 263.143 191.383 261.703 187.908C260.294 184.428 259.146 180.825 258.419 177.12C258.23 176.196 258.086 175.261 257.965 174.324C257.84 173.386 257.767 172.443 257.717 171.498C257.697 170.551 257.661 169.603 257.742 168.657C257.785 167.71 257.931 166.768 258.098 165.837C258.202 165.373 258.291 164.908 258.41 164.451L258.833 163.095C259.177 162.214 259.536 161.34 260.02 160.531C260.227 160.108 260.506 159.729 260.777 159.346C261.038 158.956 261.315 158.58 261.643 158.247C262.237 157.524 262.953 156.93 263.647 156.322C262.996 156.982 262.329 157.618 261.794 158.374C261.495 158.725 261.25 159.115 261.013 159.51C260.767 159.898 260.516 160.282 260.335 160.707C259.905 161.52 259.601 162.388 259.314 163.258L258.973 164.592C258.882 165.04 258.82 165.498 258.742 165.948C258.628 166.857 258.534 167.772 258.543 168.69C258.507 169.606 258.562 170.526 258.615 171.441C258.693 172.357 258.793 173.271 258.944 174.178C259.09 175.086 259.259 175.992 259.473 176.887C260.283 180.483 261.566 183.957 262.994 187.351C264.436 190.735 266.098 194.064 267.978 197.184L266.623 197.863C266.067 196.605 265.622 195.292 264.934 194.1C264.338 192.858 263.579 191.715 262.841 190.561C262.023 189.466 261.236 188.341 260.304 187.338C259.434 186.279 258.423 185.353 257.443 184.398C256.397 183.516 255.365 182.614 254.236 181.836C253.692 181.419 253.126 181.033 252.541 180.676C251.957 180.319 251.401 179.913 250.792 179.595L248.996 178.591L247.147 177.685C245.899 177.115 244.647 176.545 243.353 176.08C242.072 175.581 240.766 175.15 239.462 174.711C238.144 174.312 236.823 173.917 235.485 173.589C234.148 173.253 232.804 172.939 231.446 172.686C230.093 172.411 228.73 172.191 227.363 171.987C224.627 171.6 221.877 171.276 219.113 171.099C216.348 170.928 213.574 170.839 210.797 170.916Z" fill="#352C38"/>
<path d="M291.093 333.924C291.093 333.924 299.697 306.408 342.712 343.513L291.093 333.924Z" fill="white"/>
<path d="M342.713 268.471C343.083 272.908 343.205 277.344 343.267 281.776L343.255 288.423L343.077 295.065C342.887 299.49 342.657 303.916 342.262 308.337C342.078 310.549 341.859 312.757 341.604 314.964C341.323 317.176 341.007 319.383 340.661 321.582L340.39 323.305L338.931 322.564C337.585 321.882 336.236 321.208 334.904 320.494L330.899 318.372C328.243 316.926 325.591 315.471 322.989 313.905C325.869 314.842 328.7 315.891 331.527 316.948L335.747 318.582C337.156 319.12 338.547 319.699 339.943 320.268L338.213 321.25C338.337 319.053 338.49 316.864 338.679 314.68C338.798 312.481 338.913 310.279 339.085 308.086C339.27 305.893 339.317 303.682 339.505 301.486L339.965 294.883C340.312 290.482 340.663 286.077 341.105 281.674C341.342 279.474 341.545 277.27 341.827 275.071C342.07 272.871 342.38 270.672 342.713 268.471Z" fill="#59221E"/>
<path d="M239.885 310.161C239.009 309.015 238.252 307.759 237.709 306.393C237.591 306.045 237.431 305.71 237.347 305.349C237.266 304.987 237.133 304.635 237.095 304.26C237.065 303.885 236.972 303.513 236.997 303.13C237.039 302.751 236.997 302.355 237.115 301.981C237.246 301.617 237.283 301.203 237.503 300.873C237.722 300.55 237.877 300.157 238.166 299.896C238.454 299.634 238.739 299.361 239.039 299.11L240.045 298.561C240.376 298.348 240.741 298.276 241.096 298.158L242.171 297.831L244.355 297.504L243.841 297.973C244.21 295.347 244.389 292.663 244.516 290.005C244.628 287.343 244.588 284.676 244.355 282.045C244.114 279.426 243.66 276.798 242.668 274.453C242.178 273.285 241.553 272.187 240.731 271.299C239.904 270.421 238.872 269.793 237.728 269.494C236.576 269.209 235.371 269.131 234.095 269.359C232.87 269.554 231.719 269.922 230.691 270.589C229.68 271.249 228.839 272.167 228.246 273.27C227.648 274.368 227.275 275.614 227.057 276.894C226.617 279.469 226.807 282.156 227.12 284.799C227.468 287.448 228.065 290.073 228.825 292.653C227.791 290.169 227.036 287.565 226.483 284.908C225.938 282.253 225.67 279.501 226 276.735C226.174 275.356 226.513 273.97 227.144 272.68C227.769 271.396 228.71 270.211 229.918 269.398C231.103 268.576 232.519 268.096 233.896 267.852C235.221 267.588 236.726 267.591 238.131 267.945C239.55 268.302 240.877 269.101 241.888 270.165C242.895 271.236 243.617 272.5 244.173 273.798C245.268 276.414 245.695 279.178 245.934 281.904C246.171 284.638 246.108 287.371 245.946 290.083C245.784 292.801 245.427 295.483 244.948 298.171L244.873 298.596L244.434 298.641L242.374 298.854L241.388 299.109C241.063 299.202 240.715 299.251 240.43 299.425L239.53 299.86L238.775 300.484C238.52 300.693 238.389 300.999 238.178 301.251C237.967 301.507 237.927 301.855 237.786 302.155C237.658 302.464 237.677 302.82 237.612 303.153C237.562 303.492 237.627 303.843 237.627 304.191C237.635 304.54 237.739 304.884 237.79 305.233C237.845 305.584 237.977 305.917 238.067 306.262C238.507 307.618 239.123 308.934 239.885 310.161Z" fill="#59221E"/>
<path d="M345.581 256.797C345.581 256.797 345.92 257.302 346.514 258.187C346.807 258.613 347.175 259.116 347.584 259.672C347.995 260.23 348.447 260.841 348.968 261.474C349.439 262.128 350.06 262.761 350.613 263.454C351.25 264.099 351.82 264.82 352.528 265.462C352.881 265.782 353.181 266.152 353.545 266.47C353.918 266.781 354.285 267.099 354.637 267.436C355.344 268.105 356.182 268.657 356.923 269.308C357.741 269.88 358.561 270.451 359.365 271.015C360.237 271.491 361.031 272.086 361.871 272.569C362.731 273.016 363.555 273.498 364.343 273.981C365.158 274.401 365.953 274.786 366.682 275.196C367.409 275.62 368.093 276.003 368.724 276.288C369.349 276.595 369.896 276.915 370.353 277.168C371.267 277.684 371.8 278.059 371.8 278.059C371.8 278.059 371.216 278.265 370.176 278.482C369.655 278.587 369.016 278.725 368.28 278.826C367.912 278.88 367.518 278.932 367.104 278.962C366.691 278.961 366.256 278.958 365.804 278.956C364.896 278.926 363.899 278.895 362.853 278.769C361.823 278.565 360.729 278.32 359.604 278.016C358.493 277.675 357.378 277.165 356.249 276.654C355.137 276.102 354.088 275.356 353.021 274.665C352.065 273.805 351.021 273.046 350.206 272.064C349.353 271.122 348.573 270.148 347.964 269.098C347.283 268.107 346.841 267.007 346.391 266.017C346.032 264.972 345.681 264.007 345.523 263.059C345.324 262.131 345.231 261.262 345.197 260.494C345.153 259.729 345.212 259.048 345.255 258.504C345.359 257.403 345.581 256.797 345.581 256.797Z" fill="#1A141C"/>
<path d="M332.471 255.547C332.471 255.547 332.235 256.323 331.523 257.541C331.146 258.118 330.719 258.891 330.085 259.629C329.485 260.415 328.721 261.211 327.838 262.048C326.939 262.852 325.915 263.701 324.741 264.453C324.156 264.831 323.533 265.186 322.9 265.569C322.258 265.927 321.564 266.2 320.869 266.524C320.177 266.856 319.456 267.15 318.7 267.357C317.952 267.594 317.19 267.828 316.415 268.038C314.857 268.366 313.244 268.642 311.636 268.779L309.22 268.836C308.417 268.875 307.618 268.845 306.838 268.737C306.054 268.66 305.279 268.567 304.517 268.458C303.752 268.363 303.001 268.267 302.288 268.042C300.848 267.67 299.468 267.285 298.187 266.865C296.936 266.341 295.773 265.816 294.716 265.312C294.193 265.051 293.692 264.802 293.216 264.565C292.765 264.273 292.336 263.997 291.933 263.737C291.134 263.212 290.462 262.71 289.909 262.309C288.808 261.498 288.225 260.967 288.225 260.967C288.225 260.967 289.037 260.962 290.377 261.07C291.046 261.129 291.857 261.184 292.757 261.3C293.205 261.36 293.681 261.424 294.183 261.492C294.687 261.526 295.219 261.562 295.771 261.6C296.87 261.688 298.038 261.807 299.256 261.963C300.487 262.023 301.772 262.068 303.08 262.182C304.388 262.33 305.736 262.18 307.089 262.27C307.768 262.323 308.446 262.26 309.123 262.222L311.162 262.128C311.848 262.147 312.507 261.984 313.179 261.925C313.844 261.823 314.527 261.817 315.181 261.7C316.469 261.4 317.803 261.303 319.022 260.932C319.646 260.781 320.261 260.632 320.86 260.485C321.45 260.302 322.023 260.106 322.601 259.947C323.191 259.807 323.713 259.564 324.252 259.38C324.781 259.18 325.325 259.027 325.803 258.802C326.787 258.396 327.712 258.018 328.51 257.623C329.336 257.263 330.024 256.884 330.623 256.588C331.184 256.255 331.681 256.03 331.979 255.834C332.3 255.648 332.471 255.547 332.471 255.547Z" fill="#1A141C"/>
<path d="M311.12 282.007C310.315 287.239 307.941 291.207 305.818 290.868C303.694 290.53 302.625 286.014 303.43 280.782C304.235 275.55 306.61 271.582 308.732 271.921C310.856 272.26 311.925 276.775 311.12 282.007Z" fill="#1A141C"/>
<path d="M357.824 290.346C357.019 295.578 354.645 299.545 352.522 299.206C350.398 298.869 349.329 294.352 350.134 289.12C350.939 283.888 353.314 279.921 355.436 280.26C357.56 280.597 358.629 285.114 357.824 290.346Z" fill="#1A141C"/>
<path d="M299.697 286.398C299.697 286.398 299.754 286.86 299.856 287.668C299.946 288.474 300.138 289.617 300.4 290.959C300.539 291.63 300.714 292.345 300.91 293.091C301.124 293.83 301.391 294.591 301.718 295.327C302.058 296.052 302.483 296.76 303.021 297.283C303.566 297.766 304.197 298.179 304.913 298.15C305.487 298.185 306.237 297.837 306.841 297.346C307.456 296.838 308.04 296.232 308.542 295.579C309.558 294.277 310.372 292.905 311.054 291.72C311.722 290.524 312.283 289.513 312.637 288.786C313.006 288.061 313.216 287.647 313.216 287.647C313.216 287.647 312.9 289.497 311.903 292.134C311.393 293.445 310.715 294.957 309.702 296.454C309.187 297.192 308.607 297.957 307.832 298.6C307.052 299.224 306.096 299.833 304.822 299.812C303.686 299.805 302.649 299.146 301.908 298.423C301.155 297.664 300.746 296.749 300.394 295.897C300.057 295.033 299.869 294.174 299.722 293.364C299.583 292.554 299.513 291.784 299.471 291.076C299.349 288.244 299.697 286.398 299.697 286.398Z" fill="#59221E"/>
<path d="M347.628 295.152C347.628 295.152 347.684 295.56 347.78 296.274C347.858 296.985 348.041 297.996 348.252 299.185C348.48 300.37 348.765 301.753 349.262 303.105C349.49 303.789 349.839 304.426 350.223 304.977C350.641 305.469 351.092 305.932 351.661 305.95L351.761 305.982L351.786 305.991L351.798 305.995C351.826 305.997 351.582 305.991 351.689 305.994H351.698L351.773 305.991L352.074 305.979C352.255 305.961 352.528 305.989 352.594 305.913C352.703 305.86 352.811 305.821 352.93 305.793L353.33 305.542C353.608 305.397 353.834 305.103 354.099 304.902C354.32 304.624 354.571 304.386 354.768 304.086C355.6 302.932 356.217 301.671 356.726 300.582C357.217 299.482 357.632 298.546 357.873 297.874C358.132 297.204 358.281 296.821 358.281 296.821C358.281 296.821 358.272 297.237 358.182 297.955C358.076 298.669 357.945 299.704 357.61 300.909C357.283 302.115 356.811 303.517 355.959 304.914C355.523 305.599 355.007 306.322 354.227 306.867C354.027 306.999 353.837 307.135 353.619 307.257C353.361 307.36 353.091 307.453 352.823 307.534C352.521 307.642 352.378 307.602 352.161 307.63L351.86 307.65L351.785 307.654L351.648 307.653L351.624 307.648L351.576 307.638L351.383 307.594C350.29 307.465 349.497 306.648 348.949 305.931C348.421 305.164 348.113 304.345 347.895 303.567C347.656 302.788 347.543 302.023 347.454 301.305C347.36 300.586 347.326 299.907 347.319 299.281C347.288 298.032 347.4 296.997 347.462 296.277C347.543 295.558 347.628 295.152 347.628 295.152Z" fill="#59221E"/>
<path d="M595.056 673.797H396.463L471.606 506.771H670.199L595.056 673.797Z" fill="#352C38"/>
<path d="M423.97 655.785H285.761V673.798H423.97V655.785Z" fill="#352C38"/>
<path d="M608.474 673.797H409.882L485.025 506.771H683.617L608.474 673.797Z" fill="#765E69"/>
</svg>
